<?xml version="1.0" encoding="UTF-8" standalone="no"?>
<svg
   xmlns:dc="http://purl.org/dc/elements/1.1/"
   xmlns:cc="http://creativecommons.org/ns#"
   xmlns:rdf="http://www.w3.org/1999/02/22-rdf-syntax-ns#"
   xmlns:svg="http://www.w3.org/2000/svg"
   xmlns="http://www.w3.org/2000/svg"
   xmlns:xlink="http://www.w3.org/1999/xlink"
   xmlns:sodipodi="http://sodipodi.sourceforge.net/DTD/sodipodi-0.dtd"
   xmlns:inkscape="http://www.inkscape.org/namespaces/inkscape"
   width="500mm"
   height="20mm"
   viewBox="0 0 500 20"
   version="1.1"
   id="svg8"
   inkscape:version="0.92.4 (5da689c313, 2019-01-14)"
   sodipodi:docname="teile24-kennzeichendruck-fin.svg">
  <defs
     id="defs2" />
  <sodipodi:namedview
     id="base"
     pagecolor="#ffffff"
     bordercolor="#666666"
     borderopacity="1.0"
     inkscape:pageopacity="0.0"
     inkscape:pageshadow="2"
     inkscape:zoom="0.70710678"
     inkscape:cx="618.1204"
     inkscape:cy="-183.50142"
     inkscape:document-units="mm"
     inkscape:current-layer="layer1"
     inkscape:document-rotation="0"
     showgrid="false"
     inkscape:window-width="1876"
     inkscape:window-height="1002"
     inkscape:window-x="20"
     inkscape:window-y="54"
     inkscape:window-maximized="0" />
  <metadata
     id="metadata5">
    <rdf:RDF>
      <cc:Work
         rdf:about="">
        <dc:format>image/svg+xml</dc:format>
        <dc:type
           rdf:resource="http://purl.org/dc/dcmitype/StillImage" />
        <dc:title></dc:title>
      </cc:Work>
    </rdf:RDF>
  </metadata>
  <g
     inkscape:label="Layer 1"
     inkscape:groupmode="layer"
     id="layer1">
    <rect
       style="fill:#0180ff;fill-rule:evenodd;stroke-width:0.255946;fill-opacity:1"
       id="rect10"
       width="500"
       height="20"
       x="0"
       y="0" />
    <g
       aria-label="            KESSELIN URAKOINTI KY    PERÄJÄRVI    PUH. 08 561 18            "
       style="font-style:normal;font-weight:normal;font-size:10.58329964px;line-height:1.25;font-family:sans-serif;fill:#ffffff;fill-opacity:1;stroke:none;stroke-width:0.26458299"
       id="text18">
      <path
         d="m 52.917435,15.501633 v -0.819932 q 0.661458,-0.0689 0.881944,-0.282498 0.227376,-0.220486 0.227376,-0.875054 V 7.4883468 q 0,-0.6614578 -0.220486,-0.8750536 -0.220486,-0.2204859 -0.888834,-0.296278 V 5.5108635 h 4.637095 v 0.8061517 q -0.668348,0.075792 -0.888834,0.296278 -0.220485,0.2135958 -0.220485,0.8750536 V 10.20997 l 2.762964,-2.5424784 q 0.227376,-0.1998154 0.323839,-0.3651798 0.09646,-0.1722547 0.09646,-0.3513995 0,-0.2756074 -0.227376,-0.4409719 Q 59.173724,6.344576 58.739642,6.3170152 V 5.5108635 h 4.223684 v 0.8061517 q -0.668348,0.089572 -1.219563,0.3858504 -0.551215,0.296278 -1.240233,0.964626 l -1.943033,1.8948011 q -0.05512,0.048231 -0.08957,0.1033528 -0.02756,0.048231 -0.02756,0.075792 0,0.034451 0.02756,0.082682 0.03445,0.041341 0.158474,0.1584743 l 3.782712,3.796492 q 0.558105,0.558105 0.826823,0.73725 0.275607,0.179145 0.509873,0.179145 0.0689,0 0.09646,0 0.03445,-0.0069 0.06201,-0.0069 v 0.813042 h -2.893878 l -4.568193,-4.602644 v 2.62516 q 0,0.654568 0.220485,0.875054 0.220486,0.213596 0.888834,0.282498 v 0.819932 z"
         style="font-style:normal;font-variant:normal;font-weight:bold;font-stretch:normal;font-size:14.1111002px;font-family:'Aldine721 BT';-inkscape-font-specification:'Aldine721 BT Bold';letter-spacing:0px;word-spacing:0.529167px;fill:#ffffff;stroke-width:0.26458299"
         id="path822" />
      <path
         d="m 64.189778,15.501633 v -0.819932 q 0.661458,-0.0689 0.881944,-0.282498 0.227376,-0.220486 0.227376,-0.875054 V 7.4883468 q 0,-0.6545676 -0.227376,-0.8681634 Q 64.851236,6.3996975 64.189778,6.3307956 V 5.5108635 h 7.841031 V 7.571029 h -0.75792 Q 70.976611,6.902681 70.439177,6.5995128 69.901742,6.2894545 69.026688,6.2894545 q -0.813041,0 -1.040418,0.110243 -0.227376,0.1033527 -0.227376,0.5925559 v 2.7629645 h 1.054199 q 0.689018,0 1.047308,-0.2756075 0.35829,-0.2756074 0.447862,-0.8957241 h 0.819932 v 3.3210697 h -0.813042 q -0.0689,-0.627007 -0.454752,-0.964626 -0.38585,-0.337619 -1.047308,-0.337619 h -1.054199 v 2.742294 q 0,0.661457 0.275608,0.930175 0.282497,0.268717 1.005967,0.268717 0.957736,0 1.722546,-0.440972 0.764811,-0.440972 1.267794,-1.281575 h 0.792372 l -0.592556,2.680283 z"
         style="font-style:normal;font-variant:normal;font-weight:bold;font-stretch:normal;font-size:14.1111002px;font-family:'Aldine721 BT';-inkscape-font-specification:'Aldine721 BT Bold';letter-spacing:0px;word-spacing:0.529167px;fill:#ffffff;stroke-width:0.26458299"
         id="path824" />
      <path
         d="m 73.980735,15.067551 v -2.487357 h 0.77859 q 0.220486,1.033528 0.888834,1.605413 0.668348,0.564995 1.660535,0.564995 0.72347,0 1.192002,-0.39274 0.475423,-0.399631 0.475423,-0.999077 0,-0.840603 -1.908581,-1.894801 -0.509874,-0.289388 -0.785481,-0.447862 -1.343587,-0.785481 -1.8259,-1.4262686 -0.475422,-0.6476774 -0.475422,-1.5365114 0,-1.3091353 0.957735,-2.0601655 0.957736,-0.7510302 2.625161,-0.7510302 0.792371,0 1.515841,0.2273761 0.723469,0.2204859 1.433159,0.6890186 v 1.9774832 h -0.73036 Q 79.561785,7.198959 78.920998,6.6477441 78.28021,6.0896391 77.425827,6.0896391 q -0.675238,0 -1.102429,0.3445093 -0.420302,0.3445093 -0.420302,0.8819437 0,0.8268223 1.943033,1.8396796 0.02756,0.01378 0.04823,0.027561 0.09646,0.048231 0.296278,0.151584 1.095539,0.5581051 1.619194,0.9852965 0.551214,0.447862 0.847492,1.012857 0.296278,0.558105 0.296278,1.164442 0,1.440049 -0.964626,2.301322 -0.957735,0.861273 -2.590709,0.861273 -0.695909,0 -1.550292,-0.151584 -0.847493,-0.144694 -1.86724,-0.440972 z"
         style="font-style:normal;font-variant:normal;font-weight:bold;font-stretch:normal;font-size:14.1111002px;font-family:'Aldine721 BT';-inkscape-font-specification:'Aldine721 BT Bold';letter-spacing:0px;word-spacing:0.529167px;fill:#ffffff;stroke-width:0.26458299"
         id="path826" />
      <path
         d="m 82.607245,15.067551 v -2.487357 h 0.778591 q 0.220486,1.033528 0.888834,1.605413 0.668348,0.564995 1.660535,0.564995 0.723469,0 1.192002,-0.39274 0.475423,-0.399631 0.475423,-0.999077 0,-0.840603 -1.908582,-1.894801 Q 85.184175,11.174596 84.908567,11.016122 83.564981,10.230641 83.082668,9.5898534 82.607245,8.942176 82.607245,8.053342 q 0,-1.3091353 0.957736,-2.0601655 0.957736,-0.7510302 2.625161,-0.7510302 0.792371,0 1.515841,0.2273761 0.723469,0.2204859 1.433158,0.6890186 v 1.9774832 h -0.73036 Q 88.188296,7.198959 87.547508,6.6477441 q -0.640787,-0.558105 -1.49517,-0.558105 -0.675238,0 -1.10243,0.3445093 -0.420301,0.3445093 -0.420301,0.8819437 0,0.8268223 1.943032,1.8396796 0.02756,0.01378 0.04823,0.027561 0.09646,0.048231 0.296278,0.151584 1.095539,0.5581051 1.619193,0.9852965 0.551215,0.447862 0.847493,1.012857 0.296278,0.558105 0.296278,1.164442 0,1.440049 -0.964626,2.301322 -0.957736,0.861273 -2.59071,0.861273 -0.695909,0 -1.550292,-0.151584 -0.847492,-0.144694 -1.86724,-0.440972 z"
         style="font-style:normal;font-variant:normal;font-weight:bold;font-stretch:normal;font-size:14.1111002px;font-family:'Aldine721 BT';-inkscape-font-specification:'Aldine721 BT Bold';letter-spacing:0px;word-spacing:0.529167px;fill:#ffffff;stroke-width:0.26458299"
         id="path828" />
      <path
         d="m 90.813454,15.501633 v -0.819932 q 0.661458,-0.0689 0.881944,-0.282498 0.227376,-0.220486 0.227376,-0.875054 V 7.4883468 q 0,-0.6545676 -0.227376,-0.8681634 Q 91.474912,6.3996975 90.813454,6.3307956 V 5.5108635 h 7.841032 V 7.571029 H 97.896565 Q 97.600287,6.902681 97.062853,6.5995128 96.525418,6.2894545 95.650365,6.2894545 q -0.813042,0 -1.040418,0.110243 -0.227376,0.1033527 -0.227376,0.5925559 v 2.7629645 h 1.054198 q 0.689019,0 1.047308,-0.2756075 0.35829,-0.2756074 0.447862,-0.8957241 h 0.819932 v 3.3210697 h -0.813042 q -0.0689,-0.627007 -0.454752,-0.964626 -0.38585,-0.337619 -1.047308,-0.337619 h -1.054198 v 2.742294 q 0,0.661457 0.275607,0.930175 0.282498,0.268717 1.005967,0.268717 0.957736,0 1.722547,-0.440972 0.76481,-0.440972 1.267794,-1.281575 h 0.792371 l -0.592556,2.680283 z"
         style="font-style:normal;font-variant:normal;font-weight:bold;font-stretch:normal;font-size:14.1111002px;font-family:'Aldine721 BT';-inkscape-font-specification:'Aldine721 BT Bold';letter-spacing:0px;word-spacing:0.529167px;fill:#ffffff;stroke-width:0.26458299"
         id="path830" />
      <path
         d="m 104.84876,5.5108635 v 0.8061517 q -0.65457,0.075792 -0.87505,0.2893878 -0.22049,0.2135958 -0.22049,0.8819438 v 5.5190382 q 0,1.10243 0.31695,1.405598 0.32384,0.296278 1.31603,0.296278 1.24023,0 1.97748,-0.447862 0.73725,-0.454752 1.45383,-1.639864 h 0.77859 l -0.61323,2.880098 h -8.79876 v -0.819932 q 0.66145,-0.0689 0.88194,-0.282498 0.22738,-0.220486 0.22738,-0.875054 V 7.4883468 q 0,-0.6614578 -0.22049,-0.8750536 -0.22049,-0.2204859 -0.88883,-0.296278 V 5.5108635 Z"
         style="font-style:normal;font-variant:normal;font-weight:bold;font-stretch:normal;font-size:14.1111002px;font-family:'Aldine721 BT';-inkscape-font-specification:'Aldine721 BT Bold';letter-spacing:0px;word-spacing:0.529167px;fill:#ffffff;stroke-width:0.26458299"
         id="path832" />
      <path
         d="m 110.33335,15.501633 v -0.819932 q 0.66835,-0.0689 0.88883,-0.282498 0.22738,-0.220486 0.22738,-0.875054 V 7.4883468 q 0,-0.6545676 -0.22738,-0.8681634 -0.22048,-0.2204859 -0.88883,-0.2893878 V 5.5108635 h 4.64398 v 0.8199321 q -0.66834,0.068902 -0.89572,0.2893878 -0.22049,0.2135958 -0.22049,0.8681634 v 6.0358022 q 0,0.654568 0.22049,0.875054 0.22738,0.213596 0.89572,0.282498 v 0.819932 z"
         style="font-style:normal;font-variant:normal;font-weight:bold;font-stretch:normal;font-size:14.1111002px;font-family:'Aldine721 BT';-inkscape-font-specification:'Aldine721 BT Bold';letter-spacing:0px;word-spacing:0.529167px;fill:#ffffff;stroke-width:0.26458299"
         id="path834" />
      <path
         d="m 115.8455,15.501633 v -0.819932 q 0.72347,-0.0689 0.9853,-0.385851 0.26183,-0.316948 0.26183,-1.378037 V 7.1162768 q -0.34451,-0.4203014 -0.62701,-0.5994462 -0.2825,-0.186035 -0.58567,-0.186035 h -0.0344 V 5.5108635 h 2.76986 q 0.19981,0 0.2825,0.048231 0.0827,0.048231 0.22737,0.2204859 l 5.14697,6.0840343 V 7.7432837 q 0,-0.6476775 -0.29628,-0.9784064 -0.28939,-0.3307289 -0.95773,-0.4340817 V 5.5108635 h 3.41064 v 0.8199321 q -0.68213,0.110243 -0.95085,0.4134111 -0.26182,0.3031682 -0.26182,0.999077 v 6.3045203 q 0,0.37896 0.0138,0.785481 0.0207,0.406521 0.0551,0.868163 H 124.2722 L 118.00902,8.34962 v 4.568193 q 0,0.992187 0.30317,1.336696 0.31006,0.337619 1.192,0.427192 v 0.819932 z"
         style="font-style:normal;font-variant:normal;font-weight:bold;font-stretch:normal;font-size:14.1111002px;font-family:'Aldine721 BT';-inkscape-font-specification:'Aldine721 BT Bold';letter-spacing:0px;word-spacing:0.529167px;fill:#ffffff;stroke-width:0.26458299"
         id="path836" />
      <path
         d="m 131.27125,5.5108635 h 4.69911 v 0.8199321 h -0.0551 q -0.66146,0 -0.88884,0.2618271 -0.22737,0.261827 -0.22737,1.2746843 v 4.306366 q 0,1.240233 0.5581,1.805229 0.565,0.564995 1.78456,0.564995 1.41938,0 2.06017,-0.73036 0.64078,-0.73725 0.64078,-2.377114 V 7.6950524 q 0,-0.8130419 -0.26871,-1.0886494 -0.26872,-0.2756074 -0.99219,-0.2756074 h -0.12402 V 5.5108635 h 3.52777 v 0.8199321 h -0.0551 q -0.66146,0 -0.90262,0.2756074 -0.24115,0.2687173 -0.24115,1.0886494 v 3.7413706 q 0,2.115287 -1.07487,3.217717 -1.07487,1.10243 -3.14882,1.10243 -0.88194,0 -1.66053,-0.227377 -0.7717,-0.227376 -1.37115,-0.661457 -0.61322,-0.447862 -0.88194,-1.08176 -0.26183,-0.633897 -0.26183,-1.770777 V 7.7984051 q 0,-0.9646259 -0.22737,-1.1988923 -0.22049,-0.2342663 -0.88195,-0.2687172 z"
         style="font-style:normal;font-variant:normal;font-weight:bold;font-stretch:normal;font-size:14.1111002px;font-family:'Aldine721 BT';-inkscape-font-specification:'Aldine721 BT Bold';letter-spacing:0px;word-spacing:0.529167px;fill:#ffffff;stroke-width:0.26458299"
         id="path838" />
      <path
         d="m 146.18162,10.127288 q 0.0138,0 0.0413,0 0.27561,0.02756 0.39963,0.02756 0.88883,0 1.34359,-0.4823134 0.46164,-0.4892031 0.46164,-1.4400488 0,-0.9163947 -0.45475,-1.3504763 -0.45476,-0.4409719 -1.41938,-0.4409719 -0.19293,0 -0.2825,0.075792 -0.0896,0.068902 -0.0896,0.220486 z m 0,3.32796 q 0,0.730359 0.22737,0.950845 0.22738,0.213596 0.88884,0.275608 v 0.819932 h -4.60954 v -0.819932 q 0.66835,-0.0689 0.88884,-0.282498 0.22048,-0.213596 0.22048,-0.943955 V 7.4883468 q 0,-0.6545676 -0.22737,-0.8681634 -0.22049,-0.2204859 -0.88195,-0.2893878 V 5.5108635 h 4.1479 q 1.21267,0 1.86035,0.1515841 0.64767,0.1515841 1.14377,0.4960934 0.53743,0.3858504 0.81304,0.8957241 0.27561,0.5029835 0.27561,1.1231003 0,0.8957241 -0.54433,1.522731 -0.53743,0.6201166 -1.50206,0.8474926 l 1.88791,2.907659 q 0.35829,0.551214 0.68213,0.833712 0.32384,0.282498 0.71658,0.392741 v 0.819932 h -2.57004 q -0.17225,0 -0.27561,-0.04134 -0.0965,-0.04134 -0.14469,-0.124024 l -2.55626,-4.292585 h -0.44097 z"
         style="font-style:normal;font-variant:normal;font-weight:bold;font-stretch:normal;font-size:14.1111002px;font-family:'Aldine721 BT';-inkscape-font-specification:'Aldine721 BT Bold';letter-spacing:0px;word-spacing:0.529167px;fill:#ffffff;stroke-width:0.26458299"
         id="path840" />
      <path
         d="m 152.22775,15.501633 v -0.819932 q 0.37207,-0.08957 0.59255,-0.34451 0.22738,-0.254937 0.45475,-0.909504 l 2.41157,-7.0417699 q 0.0344,-0.1240234 0.0413,-0.1791448 0.0138,-0.062012 0.0138,-0.1033528 0,-0.1446939 -0.0758,-0.2893878 -0.0758,-0.1446939 -0.23427,-0.3031682 h 2.5287 l 2.81809,8.0684075 q 0.18603,0.523654 0.42719,0.792371 0.24115,0.268717 0.56499,0.310059 v 0.819932 h -4.37527 v -0.819932 q 0.45476,-0.02067 0.66835,-0.172255 0.22049,-0.151584 0.22049,-0.447862 0,-0.08957 -0.0276,-0.220486 -0.0276,-0.137804 -0.0896,-0.344509 l -0.40653,-1.495171 h -3.07991 l -0.36518,1.371147 q -0.0551,0.206706 -0.0758,0.337619 -0.0207,0.124024 -0.0207,0.227377 0,0.358289 0.21359,0.551214 0.22049,0.192926 0.6339,0.192926 h 0.0413 v 0.819932 z m 2.76985,-4.375268 h 2.39778 l -1.18511,-3.5966771 z"
         style="font-style:normal;font-variant:normal;font-weight:bold;font-stretch:normal;font-size:14.1111002px;font-family:'Aldine721 BT';-inkscape-font-specification:'Aldine721 BT Bold';letter-spacing:0px;word-spacing:0.529167px;fill:#ffffff;stroke-width:0.26458299"
         id="path842" />
      <path
         d="m 162.55959,15.501633 v -0.819932 q 0.66145,-0.0689 0.88194,-0.282498 0.22738,-0.220486 0.22738,-0.875054 V 7.4883468 q 0,-0.6614578 -0.22049,-0.8750536 -0.22049,-0.2204859 -0.88883,-0.296278 V 5.5108635 h 4.63709 v 0.8061517 q -0.66835,0.075792 -0.88883,0.296278 -0.22049,0.2135958 -0.22049,0.8750536 V 10.20997 l 2.76297,-2.5424784 q 0.22737,-0.1998154 0.32383,-0.3651798 0.0965,-0.1722547 0.0965,-0.3513995 0,-0.2756074 -0.22738,-0.4409719 -0.22738,-0.1653644 -0.66146,-0.1929252 V 5.5108635 h 4.22369 v 0.8061517 q -0.66835,0.089572 -1.21957,0.3858504 -0.55121,0.296278 -1.24023,0.964626 l -1.94303,1.8948011 q -0.0551,0.048231 -0.0896,0.1033528 -0.0276,0.048231 -0.0276,0.075792 0,0.034451 0.0276,0.082682 0.0344,0.041341 0.15847,0.1584743 l 3.78271,3.796492 q 0.55811,0.558105 0.82682,0.73725 0.27561,0.179145 0.50988,0.179145 0.0689,0 0.0965,0 0.0345,-0.0069 0.062,-0.0069 v 0.813042 h -2.89388 l -4.56819,-4.602644 v 2.62516 q 0,0.654568 0.22049,0.875054 0.22048,0.213596 0.88883,0.282498 v 0.819932 z"
         style="font-style:normal;font-variant:normal;font-weight:bold;font-stretch:normal;font-size:14.1111002px;font-family:'Aldine721 BT';-inkscape-font-specification:'Aldine721 BT Bold';letter-spacing:0px;word-spacing:0.529167px;fill:#ffffff;stroke-width:0.26458299"
         id="path844" />
      <path
         d="m 175.9851,10.237531 q 0,2.197969 0.62701,3.389971 0.6339,1.185112 1.79834,1.185112 1.192,0 1.77767,-1.005967 0.59255,-1.005967 0.59255,-3.045462 0,-2.2048594 -0.627,-3.3830812 -0.62012,-1.1782217 -1.78456,-1.1782217 -1.17822,0 -1.78456,1.0266376 -0.59945,1.0197475 -0.59945,3.0110113 z m 2.29444,5.463917 q -1.08865,0 -2.00505,-0.399631 -0.91639,-0.39963 -1.66053,-1.198892 -0.62701,-0.682128 -0.95085,-1.570962 -0.31695,-0.895724 -0.31695,-1.956813 0,-1.0404181 0.32384,-1.9499226 0.33073,-0.9095045 0.97152,-1.632974 0.72347,-0.8199321 1.70187,-1.2471236 0.9853,-0.4340817 2.13596,-0.4340817 1.01286,0 1.88791,0.3513995 0.87506,0.3445093 1.57096,1.0197475 0.73036,0.7096891 1.10243,1.6467543 0.37896,0.9301751 0.37896,2.0532756 0,1.005967 -0.30316,1.908581 -0.29628,0.895724 -0.85439,1.557182 -0.76481,0.923285 -1.76388,1.391818 -0.99908,0.461642 -2.21864,0.461642 z"
         style="font-style:normal;font-variant:normal;font-weight:bold;font-stretch:normal;font-size:14.1111002px;font-family:'Aldine721 BT';-inkscape-font-specification:'Aldine721 BT Bold';letter-spacing:0px;word-spacing:0.529167px;fill:#ffffff;stroke-width:0.26458299"
         id="path846" />
      <path
         d="m 184.3119,15.501633 v -0.819932 q 0.66834,-0.0689 0.88883,-0.282498 0.22738,-0.220486 0.22738,-0.875054 V 7.4883468 q 0,-0.6545676 -0.22738,-0.8681634 -0.22049,-0.2204859 -0.88883,-0.2893878 V 5.5108635 h 4.64398 v 0.8199321 q -0.66835,0.068902 -0.89572,0.2893878 -0.22049,0.2135958 -0.22049,0.8681634 v 6.0358022 q 0,0.654568 0.22049,0.875054 0.22737,0.213596 0.89572,0.282498 v 0.819932 z"
         style="font-style:normal;font-variant:normal;font-weight:bold;font-stretch:normal;font-size:14.1111002px;font-family:'Aldine721 BT';-inkscape-font-specification:'Aldine721 BT Bold';letter-spacing:0px;word-spacing:0.529167px;fill:#ffffff;stroke-width:0.26458299"
         id="path848" />
      <path
         d="m 189.82404,15.501633 v -0.819932 q 0.72347,-0.0689 0.9853,-0.385851 0.26183,-0.316948 0.26183,-1.378037 V 7.1162768 q -0.34451,-0.4203014 -0.62701,-0.5994462 -0.2825,-0.186035 -0.58567,-0.186035 h -0.0344 V 5.5108635 h 2.76986 q 0.19981,0 0.28249,0.048231 0.0827,0.048231 0.22738,0.2204859 l 5.14697,6.0840343 V 7.7432837 q 0,-0.6476775 -0.29628,-0.9784064 -0.28939,-0.3307289 -0.95774,-0.4340817 V 5.5108635 h 3.41065 v 0.8199321 q -0.68213,0.110243 -0.95085,0.4134111 -0.26183,0.3031682 -0.26183,0.999077 v 6.3045203 q 0,0.37896 0.0138,0.785481 0.0207,0.406521 0.0551,0.868163 h -1.01286 L 191.98756,8.34962 v 4.568193 q 0,0.992187 0.30317,1.336696 0.31006,0.337619 1.192,0.427192 v 0.819932 z"
         style="font-style:normal;font-variant:normal;font-weight:bold;font-stretch:normal;font-size:14.1111002px;font-family:'Aldine721 BT';-inkscape-font-specification:'Aldine721 BT Bold';letter-spacing:0px;word-spacing:0.529167px;fill:#ffffff;stroke-width:0.26458299"
         id="path850" />
      <path
         d="m 207.50425,12.945374 v 0.468532 q 0,0.385851 0.0276,0.571886 0.0276,0.186035 0.0965,0.289388 0.14469,0.241156 0.47542,0.358289 0.33762,0.117133 0.85438,0.117133 h 0.0827 v 0.751031 h -5.53282 v -0.751031 h 0.0896 q 0.51676,0 0.84749,-0.117133 0.33073,-0.117133 0.47543,-0.358289 0.0689,-0.103353 0.0965,-0.289388 0.0345,-0.186035 0.0345,-0.571886 V 12.945374 6.4134778 h -0.97841 q -0.8406,0 -1.31602,0.406521 -0.46854,0.3996307 -0.78548,1.3987077 h -0.7786 l 0.29628,-2.707843 h 9.66693 l 0.22738,2.707843 h -0.75792 Q 210.39124,7.2334099 209.88826,6.826889 209.39217,6.4134778 208.42065,6.4134778 h -0.9164 z"
         style="font-style:normal;font-variant:normal;font-weight:bold;font-stretch:normal;font-size:14.1111002px;font-family:'Aldine721 BT';-inkscape-font-specification:'Aldine721 BT Bold';letter-spacing:0px;word-spacing:0.529167px;fill:#ffffff;stroke-width:0.26458299"
         id="path852" />
      <path
         d="m 212.14824,15.501633 v -0.819932 q 0.66835,-0.0689 0.88884,-0.282498 0.22738,-0.220486 0.22738,-0.875054 V 7.4883468 q 0,-0.6545676 -0.22738,-0.8681634 -0.22049,-0.2204859 -0.88884,-0.2893878 V 5.5108635 h 4.64399 v 0.8199321 q -0.66835,0.068902 -0.89572,0.2893878 -0.22049,0.2135958 -0.22049,0.8681634 v 6.0358022 q 0,0.654568 0.22049,0.875054 0.22737,0.213596 0.89572,0.282498 v 0.819932 z"
         style="font-style:normal;font-variant:normal;font-weight:bold;font-stretch:normal;font-size:14.1111002px;font-family:'Aldine721 BT';-inkscape-font-specification:'Aldine721 BT Bold';letter-spacing:0px;word-spacing:0.529167px;fill:#ffffff;stroke-width:0.26458299"
         id="path854" />
      <path
         d="m 221.73801,15.501633 v -0.819932 q 0.66146,-0.0689 0.88194,-0.282498 0.22738,-0.220486 0.22738,-0.875054 V 7.4883468 q 0,-0.6614578 -0.22049,-0.8750536 -0.22048,-0.2204859 -0.88883,-0.296278 V 5.5108635 h 4.63709 v 0.8061517 q -0.66835,0.075792 -0.88883,0.296278 -0.22049,0.2135958 -0.22049,0.8750536 V 10.20997 l 2.76297,-2.5424784 q 0.22737,-0.1998154 0.32384,-0.3651798 0.0965,-0.1722547 0.0965,-0.3513995 0,-0.2756074 -0.22738,-0.4409719 Q 227.9943,6.344576 227.56021,6.3170152 V 5.5108635 h 4.22369 v 0.8061517 q -0.66835,0.089572 -1.21956,0.3858504 -0.55122,0.296278 -1.24024,0.964626 l -1.94303,1.8948011 q -0.0551,0.048231 -0.0896,0.1033528 -0.0276,0.048231 -0.0276,0.075792 0,0.034451 0.0276,0.082682 0.0344,0.041341 0.15847,0.1584743 l 3.78271,3.796492 q 0.55811,0.558105 0.82683,0.73725 0.2756,0.179145 0.50987,0.179145 0.0689,0 0.0965,0 0.0344,-0.0069 0.062,-0.0069 v 0.813042 h -2.89387 l -4.5682,-4.602644 v 2.62516 q 0,0.654568 0.22049,0.875054 0.22048,0.213596 0.88883,0.282498 v 0.819932 z"
         style="font-style:normal;font-variant:normal;font-weight:bold;font-stretch:normal;font-size:14.1111002px;font-family:'Aldine721 BT';-inkscape-font-specification:'Aldine721 BT Bold';letter-spacing:0px;word-spacing:0.529167px;fill:#ffffff;stroke-width:0.26458299"
         id="path856" />
      <path
         d="m 234.5193,15.501633 0.007,-0.819932 q 0.74414,-0.0069 0.97841,-0.234267 0.24115,-0.227376 0.24115,-1.143771 V 11.622458 L 233.42376,7.4883468 Q 233.02413,6.7993282 232.75541,6.5857325 232.48669,6.3721367 232.10773,6.3307956 V 5.5108635 h 4.69911 v 0.8130419 q -0.0413,0 -0.0896,0 -0.0482,-0.00689 -0.1378,-0.00689 -0.36518,0 -0.565,0.1515841 -0.19293,0.1446939 -0.19293,0.4134112 0,0.2204859 0.22738,0.6476774 0.0344,0.062012 0.0551,0.096463 l 1.50895,2.9076585 0.30317,-0.475423 q 1.77078,-2.7767448 1.77078,-3.3348498 0,-0.1722547 -0.22738,-0.2756074 -0.22737,-0.110243 -0.62011,-0.1240234 V 5.5108635 h 2.83875 l -0.007,0.8199321 q -0.31695,0.00689 -0.58566,0.2549369 -0.26183,0.2411565 -0.75103,1.1093199 -0.0276,0.055121 -0.11025,0.2067055 -0.93017,1.7225464 -2.1015,3.4795441 v 1.949922 q 0,0.916395 0.22737,1.1231 0.22738,0.199816 0.94396,0.227377 v 0.819932 z"
         style="font-style:normal;font-variant:normal;font-weight:bold;font-stretch:normal;font-size:14.1111002px;font-family:'Aldine721 BT';-inkscape-font-specification:'Aldine721 BT Bold';letter-spacing:0px;word-spacing:0.529167px;fill:#ffffff;stroke-width:0.26458299"
         id="path858" />
      <path
         d="M 258.69145,15.501633 V 14.66792 q 0.65457,-0.04134 0.88195,-0.261827 0.22737,-0.220486 0.22737,-0.881944 V 7.460786 q 0,-0.633897 -0.22048,-0.8474928 -0.22049,-0.2135957 -0.88884,-0.2824976 V 5.5246439 h 4.04454 q 1.92236,0 2.94211,0.7579204 1.02664,0.7579204 1.02664,2.1772987 0,1.1920021 -0.92329,1.943032 -0.92328,0.751031 -2.41156,0.751031 -0.47542,0 -0.60634,-0.06201 -0.12402,-0.06201 -0.12402,-0.344509 v -0.227377 q 0,-0.213595 0.27561,-0.234266 0.25493,-0.02756 0.44786,-0.07579 0.55121,-0.144694 0.81304,-0.5787755 0.26872,-0.4409719 0.26872,-1.1988923 0,-0.9921867 -0.43408,-1.4882801 -0.43409,-0.5029835 -1.30225,-0.5029835 -0.31006,0 -0.41341,0.068902 -0.10335,0.062012 -0.11024,0.2411565 v 6.7730521 q 0,0.627007 0.24804,0.868164 0.24805,0.241156 0.89573,0.275607 v 0.833713 z"
         style="font-style:normal;font-variant:normal;font-weight:bold;font-stretch:normal;font-size:14.1111002px;font-family:'Aldine721 BT';-inkscape-font-specification:'Aldine721 BT Bold';letter-spacing:0px;word-spacing:0.529167px;fill:#ffffff;stroke-width:0.26458299"
         id="path860" />
      <path
         d="m 267.59357,15.501633 v -0.819932 q 0.66146,-0.0689 0.88194,-0.282498 0.22738,-0.220486 0.22738,-0.875054 V 7.4883468 q 0,-0.6545676 -0.22738,-0.8681634 -0.22048,-0.2204859 -0.88194,-0.2893878 V 5.5108635 h 7.84103 V 7.571029 h -0.75792 q -0.29628,-0.668348 -0.83371,-0.9715162 -0.53744,-0.3100583 -1.41249,-0.3100583 -0.81304,0 -1.04042,0.110243 -0.22738,0.1033527 -0.22738,0.5925559 v 2.7629645 h 1.0542 q 0.68902,0 1.04731,-0.2756075 0.35829,-0.2756074 0.44786,-0.8957241 h 0.81993 v 3.3210697 h -0.81304 q -0.0689,-0.627007 -0.45475,-0.964626 -0.38585,-0.337619 -1.04731,-0.337619 h -1.0542 v 2.742294 q 0,0.661457 0.27561,0.930175 0.2825,0.268717 1.00597,0.268717 0.95773,0 1.72254,-0.440972 0.76482,-0.440972 1.2678,-1.281575 h 0.79237 l -0.59256,2.680283 z"
         style="font-style:normal;font-variant:normal;font-weight:bold;font-stretch:normal;font-size:14.1111002px;font-family:'Aldine721 BT';-inkscape-font-specification:'Aldine721 BT Bold';letter-spacing:0px;word-spacing:0.529167px;fill:#ffffff;stroke-width:0.26458299"
         id="path862" />
      <path
         d="m 280.45756,10.127288 q 0.0138,0 0.0413,0 0.27561,0.02756 0.39963,0.02756 0.88883,0 1.34359,-0.4823134 0.46164,-0.4892031 0.46164,-1.4400488 0,-0.9163947 -0.45475,-1.3504763 -0.45476,-0.4409719 -1.41938,-0.4409719 -0.19293,0 -0.2825,0.075792 -0.0896,0.068902 -0.0896,0.220486 z m 0,3.32796 q 0,0.730359 0.22737,0.950845 0.22738,0.213596 0.88884,0.275608 v 0.819932 h -4.60954 v -0.819932 q 0.66835,-0.0689 0.88884,-0.282498 0.22048,-0.213596 0.22048,-0.943955 V 7.4883468 q 0,-0.6545676 -0.22737,-0.8681634 -0.22049,-0.2204859 -0.88195,-0.2893878 V 5.5108635 h 4.1479 q 1.21267,0 1.86035,0.1515841 0.64767,0.1515841 1.14377,0.4960934 0.53743,0.3858504 0.81304,0.8957241 0.27561,0.5029835 0.27561,1.1231003 0,0.8957241 -0.54433,1.522731 -0.53743,0.6201166 -1.50206,0.8474926 l 1.88791,2.907659 q 0.35829,0.551214 0.68213,0.833712 0.32384,0.282498 0.71658,0.392741 v 0.819932 h -2.57004 q -0.17225,0 -0.27561,-0.04134 -0.0965,-0.04134 -0.14469,-0.124024 l -2.55626,-4.292585 h -0.44097 z"
         style="font-style:normal;font-variant:normal;font-weight:bold;font-stretch:normal;font-size:14.1111002px;font-family:'Aldine721 BT';-inkscape-font-specification:'Aldine721 BT Bold';letter-spacing:0px;word-spacing:0.529167px;fill:#ffffff;stroke-width:0.26458299"
         id="path864" />
      <path
         d="m 287.00324,15.501633 v -0.819932 q 0.37207,-0.08957 0.59256,-0.34451 0.22737,-0.254937 0.45475,-0.909504 l 2.41157,-7.0417699 q 0.0344,-0.1240234 0.0413,-0.1791448 0.0138,-0.062012 0.0138,-0.1033528 0,-0.1446939 -0.0758,-0.2893878 -0.0758,-0.1446939 -0.23427,-0.3031682 h 2.5287 l 2.81808,8.0684075 q 0.18604,0.523654 0.42719,0.792371 0.24116,0.268717 0.565,0.310059 v 0.819932 h -4.37527 v -0.819932 q 0.45475,-0.02067 0.66835,-0.172255 0.22049,-0.151584 0.22049,-0.447862 0,-0.08957 -0.0276,-0.220486 -0.0276,-0.137804 -0.0896,-0.344509 l -0.40652,-1.495171 h -3.07991 l -0.36518,1.371147 q -0.0551,0.206706 -0.0758,0.337619 -0.0207,0.124024 -0.0207,0.227377 0,0.358289 0.21359,0.551214 0.22049,0.192926 0.6339,0.192926 h 0.0413 v 0.819932 z m 2.76986,-4.375268 h 2.39778 l -1.18511,-3.5966771 z m 2.33577,-7.7032277 q 0,-0.330729 0.24805,-0.5718855 0.24804,-0.2480466 0.58566,-0.2480466 0.33762,0 0.57878,0.2411565 0.24115,0.2411565 0.24115,0.5787756 0,0.3651798 -0.22737,0.5994461 -0.22738,0.2342663 -0.59256,0.2342663 -0.3514,0 -0.59255,-0.2411565 -0.24116,-0.2411565 -0.24116,-0.5925559 z m -2.50803,0 q 0,-0.330729 0.24805,-0.5718855 0.24805,-0.2480466 0.58566,-0.2480466 0.33762,0 0.57878,0.2411565 0.24116,0.2411565 0.24116,0.5787756 0,0.3651798 -0.23427,0.5994461 -0.22738,0.2342663 -0.58567,0.2342663 -0.35828,0 -0.59944,-0.2411565 -0.23427,-0.2411565 -0.23427,-0.5925559 z"
         style="font-style:normal;font-variant:normal;font-weight:bold;font-stretch:normal;font-size:14.1111002px;font-family:'Aldine721 BT';-inkscape-font-specification:'Aldine721 BT Bold';letter-spacing:0px;word-spacing:0.529167px;fill:#ffffff;stroke-width:0.26458299"
         id="path866" />
      <path
         d="M 297.97928,6.3307956 V 5.5108635 h 4.64399 v 0.8199321 q -0.66835,0.068902 -0.89573,0.2893878 -0.22048,0.2135958 -0.22048,0.8681634 v 6.7317112 q 0,0.895724 -0.0689,1.378037 -0.0689,0.489203 -0.22738,0.861273 -0.34451,0.813042 -1.11621,1.240234 -0.76481,0.427191 -1.87413,0.427191 -0.86127,0 -1.35737,-0.337619 -0.49609,-0.337619 -0.49609,-0.916394 0,-0.399631 0.25494,-0.661458 0.24804,-0.254937 0.62011,-0.254937 0.25494,0 0.43408,0.110243 0.18604,0.110243 0.45476,0.475423 0.0344,0.04823 0.0827,0.117133 0.26872,0.37896 0.49609,0.37896 0.2136,0 0.29628,-0.151584 0.0896,-0.144694 0.0896,-0.578776 V 7.4883468 q 0,-0.6545676 -0.22737,-0.8681634 -0.22049,-0.2204859 -0.88884,-0.2893878 z"
         style="font-style:normal;font-variant:normal;font-weight:bold;font-stretch:normal;font-size:14.1111002px;font-family:'Aldine721 BT';-inkscape-font-specification:'Aldine721 BT Bold';letter-spacing:0px;word-spacing:0.529167px;fill:#ffffff;stroke-width:0.26458299"
         id="path868" />
      <path
         d="m 303.51212,15.501633 v -0.819932 q 0.37207,-0.08957 0.59256,-0.34451 0.22738,-0.254937 0.45475,-0.909504 L 306.971,6.3859171 q 0.0344,-0.1240234 0.0413,-0.1791448 0.0138,-0.062012 0.0138,-0.1033528 0,-0.1446939 -0.0758,-0.2893878 -0.0758,-0.1446939 -0.23427,-0.3031682 h 2.5287 l 2.81808,8.0684075 q 0.18604,0.523654 0.4272,0.792371 0.24115,0.268717 0.56499,0.310059 v 0.819932 h -4.37527 v -0.819932 q 0.45475,-0.02067 0.66835,-0.172255 0.22049,-0.151584 0.22049,-0.447862 0,-0.08957 -0.0276,-0.220486 -0.0276,-0.137804 -0.0896,-0.344509 l -0.40652,-1.495171 h -3.07991 l -0.36518,1.371147 q -0.0551,0.206706 -0.0758,0.337619 -0.0207,0.124024 -0.0207,0.227377 0,0.358289 0.21359,0.551214 0.22049,0.192926 0.6339,0.192926 h 0.0413 v 0.819932 z m 2.76986,-4.375268 h 2.39778 l -1.18511,-3.5966771 z m 2.33577,-7.7032277 q 0,-0.330729 0.24805,-0.5718855 0.24804,-0.2480466 0.58566,-0.2480466 0.33762,0 0.57878,0.2411565 0.24116,0.2411565 0.24116,0.5787756 0,0.3651798 -0.22738,0.5994461 -0.22738,0.2342663 -0.59256,0.2342663 -0.3514,0 -0.59255,-0.2411565 -0.24116,-0.2411565 -0.24116,-0.5925559 z m -2.50803,0 q 0,-0.330729 0.24805,-0.5718855 0.24805,-0.2480466 0.58567,-0.2480466 0.33761,0 0.57877,0.2411565 0.24116,0.2411565 0.24116,0.5787756 0,0.3651798 -0.23427,0.5994461 -0.22737,0.2342663 -0.58566,0.2342663 -0.35829,0 -0.59945,-0.2411565 -0.23427,-0.2411565 -0.23427,-0.5925559 z"
         style="font-style:normal;font-variant:normal;font-weight:bold;font-stretch:normal;font-size:14.1111002px;font-family:'Aldine721 BT';-inkscape-font-specification:'Aldine721 BT Bold';letter-spacing:0px;word-spacing:0.529167px;fill:#ffffff;stroke-width:0.26458299"
         id="path870" />
      <path
         d="m 317.33381,10.127288 q 0.0138,0 0.0413,0 0.27561,0.02756 0.39963,0.02756 0.88884,0 1.34359,-0.4823134 0.46164,-0.4892031 0.46164,-1.4400488 0,-0.9163947 -0.45475,-1.3504763 -0.45475,-0.4409719 -1.41938,-0.4409719 -0.19293,0 -0.2825,0.075792 -0.0896,0.068902 -0.0896,0.220486 z m 0,3.32796 q 0,0.730359 0.22738,0.950845 0.22737,0.213596 0.88883,0.275608 v 0.819932 h -4.60953 v -0.819932 q 0.66834,-0.0689 0.88883,-0.282498 0.22049,-0.213596 0.22049,-0.943955 V 7.4883468 q 0,-0.6545676 -0.22738,-0.8681634 -0.22049,-0.2204859 -0.88194,-0.2893878 V 5.5108635 h 4.14789 q 1.21267,0 1.86035,0.1515841 0.64767,0.1515841 1.14377,0.4960934 0.53743,0.3858504 0.81304,0.8957241 0.27561,0.5029835 0.27561,1.1231003 0,0.8957241 -0.54433,1.522731 -0.53743,0.6201166 -1.50206,0.8474926 l 1.88791,2.907659 q 0.35829,0.551214 0.68213,0.833712 0.32384,0.282498 0.71658,0.392741 v 0.819932 h -2.57004 q -0.17225,0 -0.27561,-0.04134 -0.0965,-0.04134 -0.14469,-0.124024 l -2.55626,-4.292585 h -0.44097 z"
         style="font-style:normal;font-variant:normal;font-weight:bold;font-stretch:normal;font-size:14.1111002px;font-family:'Aldine721 BT';-inkscape-font-specification:'Aldine721 BT Bold';letter-spacing:0px;word-spacing:0.529167px;fill:#ffffff;stroke-width:0.26458299"
         id="path872" />
      <path
         d="m 327.81034,15.701448 -3.48643,-8.3577951 q -0.24116,-0.5718854 -0.46165,-0.778591 -0.22048,-0.2067056 -0.56499,-0.2342663 V 5.5108635 h 4.32015 v 0.7027989 q -0.37207,0 -0.57189,0.1515841 -0.19292,0.1515841 -0.19292,0.4271915 0,0.096463 0.0413,0.2618271 0.0482,0.1653644 0.12402,0.3582896 l 1.94992,4.6577653 0.22049,-0.544324 q 1.62608,-3.9687474 1.62608,-4.4097192 0,-0.3582897 -0.2825,-0.592556 -0.28249,-0.2342663 -0.82682,-0.3238387 V 5.5108635 h 3.3004 v 0.7027989 q -0.75103,0.062012 -1.59163,2.2393104 -0.15848,0.4065209 -0.24116,0.6270069 -0.4892,1.2264533 -1.29535,3.1832653 -1.15755,2.818086 -1.30225,3.438203 z"
         style="font-style:normal;font-variant:normal;font-weight:bold;font-stretch:normal;font-size:14.1111002px;font-family:'Aldine721 BT';-inkscape-font-specification:'Aldine721 BT Bold';letter-spacing:0px;word-spacing:0.529167px;fill:#ffffff;stroke-width:0.26458299"
         id="path874" />
      <path
         d="m 333.69112,15.501633 v -0.819932 q 0.66835,-0.0689 0.88884,-0.282498 0.22737,-0.220486 0.22737,-0.875054 V 7.4883468 q 0,-0.6545676 -0.22737,-0.8681634 -0.22049,-0.2204859 -0.88884,-0.2893878 V 5.5108635 h 4.64399 v 0.8199321 q -0.66835,0.068902 -0.89573,0.2893878 -0.22048,0.2135958 -0.22048,0.8681634 v 6.0358022 q 0,0.654568 0.22048,0.875054 0.22738,0.213596 0.89573,0.282498 v 0.819932 z"
         style="font-style:normal;font-variant:normal;font-weight:bold;font-stretch:normal;font-size:14.1111002px;font-family:'Aldine721 BT';-inkscape-font-specification:'Aldine721 BT Bold';letter-spacing:0px;word-spacing:0.529167px;fill:#ffffff;stroke-width:0.26458299"
         id="path876" />
      <path
         d="M 355.45172,15.501633 V 14.66792 q 0.65457,-0.04134 0.88195,-0.261827 0.22737,-0.220486 0.22737,-0.881944 V 7.460786 q 0,-0.633897 -0.22048,-0.8474928 -0.22049,-0.2135957 -0.88884,-0.2824976 V 5.5246439 h 4.04454 q 1.92236,0 2.94211,0.7579204 1.02664,0.7579204 1.02664,2.1772987 0,1.1920021 -0.92329,1.943032 -0.92328,0.751031 -2.41156,0.751031 -0.47542,0 -0.60634,-0.06201 -0.12402,-0.06201 -0.12402,-0.344509 v -0.227377 q 0,-0.213595 0.27561,-0.234266 0.25493,-0.02756 0.44786,-0.07579 0.55121,-0.144694 0.81304,-0.5787755 0.26872,-0.4409719 0.26872,-1.1988923 0,-0.9921867 -0.43408,-1.4882801 -0.43409,-0.5029835 -1.30225,-0.5029835 -0.31006,0 -0.41341,0.068902 -0.10335,0.062012 -0.11024,0.2411565 v 6.7730521 q 0,0.627007 0.24804,0.868164 0.24805,0.241156 0.89573,0.275607 v 0.833713 z"
         style="font-style:normal;font-variant:normal;font-weight:bold;font-stretch:normal;font-size:14.1111002px;font-family:'Aldine721 BT';-inkscape-font-specification:'Aldine721 BT Bold';letter-spacing:0px;word-spacing:0.529167px;fill:#ffffff;stroke-width:0.26458299"
         id="path878" />
      <path
         d="m 364.31937,5.5108635 h 4.69911 v 0.8199321 h -0.0551 q -0.66146,0 -0.88884,0.2618271 -0.22737,0.261827 -0.22737,1.2746843 v 4.306366 q 0,1.240233 0.5581,1.805229 0.565,0.564995 1.78456,0.564995 1.41938,0 2.06016,-0.73036 0.64079,-0.73725 0.64079,-2.377114 V 7.6950524 q 0,-0.8130419 -0.26872,-1.0886494 -0.26871,-0.2756074 -0.99218,-0.2756074 h -0.12403 V 5.5108635 h 3.52778 v 0.8199321 h -0.0551 q -0.66146,0 -0.90262,0.2756074 -0.24115,0.2687173 -0.24115,1.0886494 v 3.7413706 q 0,2.115287 -1.07487,3.217717 -1.07487,1.10243 -3.14882,1.10243 -0.88194,0 -1.66053,-0.227377 -0.7717,-0.227376 -1.37115,-0.661457 -0.61322,-0.447862 -0.88194,-1.08176 -0.26183,-0.633897 -0.26183,-1.770777 V 7.7984051 q 0,-0.9646259 -0.22738,-1.1988923 -0.22048,-0.2342663 -0.88194,-0.2687172 z"
         style="font-style:normal;font-variant:normal;font-weight:bold;font-stretch:normal;font-size:14.1111002px;font-family:'Aldine721 BT';-inkscape-font-specification:'Aldine721 BT Bold';letter-spacing:0px;word-spacing:0.529167px;fill:#ffffff;stroke-width:0.26458299"
         id="path880" />
      <path
         d="m 375.73642,15.501633 v -0.819932 q 0.66146,-0.0689 0.88194,-0.282498 0.22738,-0.220486 0.22738,-0.875054 V 7.4883468 q 0,-0.6545676 -0.22738,-0.8681634 -0.22048,-0.2204859 -0.88194,-0.2893878 V 5.5108635 h 4.6371 v 0.8199321 q -0.66835,0.068902 -0.88884,0.2893878 -0.22048,0.2135958 -0.22048,0.8681634 v 2.3426631 h 3.86539 V 7.4883468 q 0,-0.6545676 -0.22738,-0.8681634 -0.22048,-0.2204859 -0.88883,-0.2893878 V 5.5108635 h 4.64398 v 0.8199321 q -0.66834,0.068902 -0.89572,0.2893878 -0.22049,0.2135958 -0.22049,0.8681634 v 6.0358022 q 0,0.654568 0.22049,0.875054 0.22738,0.213596 0.89572,0.282498 v 0.819932 h -4.64398 v -0.819932 q 0.66835,-0.0689 0.88883,-0.282498 0.22738,-0.220486 0.22738,-0.875054 v -2.694062 h -3.86539 v 2.694062 q 0,0.654568 0.22048,0.875054 0.22049,0.213596 0.88884,0.282498 v 0.819932 z"
         style="font-style:normal;font-variant:normal;font-weight:bold;font-stretch:normal;font-size:14.1111002px;font-family:'Aldine721 BT';-inkscape-font-specification:'Aldine721 BT Bold';letter-spacing:0px;word-spacing:0.529167px;fill:#ffffff;stroke-width:0.26458299"
         id="path882" />
      <path
         d="m 387.73911,14.502556 q 0,-0.482313 0.32384,-0.806152 0.33073,-0.323839 0.80615,-0.323839 0.46854,0 0.79926,0.330729 0.33073,0.323839 0.33073,0.799262 0,0.468532 -0.33073,0.799261 -0.33072,0.323839 -0.79926,0.323839 -0.47542,0 -0.80615,-0.323839 -0.32384,-0.323838 -0.32384,-0.799261 z"
         style="font-style:normal;font-variant:normal;font-weight:bold;font-stretch:normal;font-size:14.1111002px;font-family:'Aldine721 BT';-inkscape-font-specification:'Aldine721 BT Bold';letter-spacing:0px;word-spacing:0.529167px;fill:#ffffff;stroke-width:0.26458299"
         id="path884" />
      <path
         d="m 398.19015,6.5581717 q -0.59945,0 -0.85439,0.9095045 -0.24804,0.9026143 -0.24804,3.1970458 0,2.308213 0.26182,3.176376 0.26183,0.868163 0.89573,0.868163 0.59944,0 0.84749,-0.888834 0.25494,-0.895724 0.25494,-3.217716 0,-2.3357732 -0.26183,-3.1901563 -0.25494,-0.854383 -0.89572,-0.854383 z m 0.0413,9.1157153 q -1.4745,0 -2.26687,-1.343586 -0.79237,-1.350476 -0.79237,-3.851614 0,-2.23931 0.82682,-3.5553354 0.82682,-1.3160255 2.21864,-1.3160255 1.39871,0 2.21864,1.336696 0.82682,1.336696 0.82682,3.6449079 0,2.397785 -0.80615,3.741371 -0.80615,1.343586 -2.22553,1.343586 z"
         style="font-style:normal;font-variant:normal;font-weight:bold;font-stretch:normal;font-size:14.1111002px;font-family:'Aldine721 BT';-inkscape-font-specification:'Aldine721 BT Bold';letter-spacing:0px;word-spacing:0.529167px;fill:#ffffff;stroke-width:0.26458299"
         id="path886" />
      <path
         d="m 405.86584,9.5071712 q 0.57877,-0.4134112 0.87505,-0.8681634 0.29628,-0.4547523 0.29628,-0.9232849 0,-0.5649952 -0.44097,-0.9577358 -0.43409,-0.3996308 -1.06798,-0.3996308 -0.61323,0 -0.99219,0.2893878 -0.37896,0.2824977 -0.37896,0.7372499 0,0.4892032 0.41341,1.0128573 0.4203,0.5167639 1.29536,1.1093199 z m -1.15756,1.6743148 q -0.51676,0.454753 -0.75792,0.895724 -0.24115,0.440972 -0.24115,0.943956 0,0.76481 0.44097,1.233343 0.44786,0.468533 1.16444,0.468533 0.61323,0 1.02664,-0.37896 0.41341,-0.385851 0.41341,-0.943956 0,-0.74414 -1.88102,-2.101507 -0.11024,-0.07579 -0.16537,-0.117133 z m -0.67523,-0.537434 q -0.83372,-0.6683482 -1.24024,-1.3022453 -0.39963,-0.6407872 -0.39963,-1.2884647 0,-1.0266377 0.86128,-1.743217 0.86127,-0.7165793 2.14284,-0.7165793 1.18512,0 1.9706,0.6201167 0.78548,0.6132266 0.78548,1.5296213 0,0.6132265 -0.40652,1.1920021 -0.40652,0.5718854 -1.19201,1.0610886 0.95774,0.7510306 1.38493,1.4400486 0.42719,0.682129 0.42719,1.440049 0,1.185112 -0.89572,1.970593 -0.88883,0.778591 -2.25309,0.778591 -1.28847,0 -2.16352,-0.716579 -0.87505,-0.72347 -0.87505,-1.750107 0,-0.599447 0.39274,-1.143771 0.39274,-0.551215 1.46072,-1.371147 z"
         style="font-style:normal;font-variant:normal;font-weight:bold;font-stretch:normal;font-size:14.1111002px;font-family:'Aldine721 BT';-inkscape-font-specification:'Aldine721 BT Bold';letter-spacing:0px;word-spacing:0.529167px;fill:#ffffff;stroke-width:0.26458299"
         id="path888" />
      <path
         d="m 413.74683,10.437346 1.10243,-4.4166088 h 2.76296 q 0.3514,0 0.49609,-0.089572 0.1447,-0.089572 0.25494,-0.3238387 l 0.62012,0.2411565 -0.87506,1.522731 h -2.83875 l -0.33762,1.3298059 q 2.21175,0.3513994 3.25906,1.2195628 1.0473,0.8612737 1.0473,2.3219927 0,1.612303 -1.14377,2.556259 -1.14377,0.943955 -3.12125,0.943955 -0.75103,0 -1.09554,-0.08957 -0.34451,-0.08268 -0.34451,-0.261827 0,-0.09646 0.0896,-0.282498 0.0965,-0.192925 0.26872,-0.440972 0.16536,-0.254937 0.2825,-0.37896 0.11713,-0.130914 0.17914,-0.130914 0.0551,0.0069 0.24805,0.110243 0.74414,0.399631 1.43316,0.399631 0.86816,0 1.46072,-0.530544 0.59944,-0.530544 0.59944,-1.302245 0,-0.909505 -0.95773,-1.446939 -0.95774,-0.544325 -3.38997,-0.950846 z"
         style="font-style:normal;font-variant:normal;font-weight:bold;font-stretch:normal;font-size:14.1111002px;font-family:'Aldine721 BT';-inkscape-font-specification:'Aldine721 BT Bold';letter-spacing:0px;word-spacing:0.529167px;fill:#ffffff;stroke-width:0.26458299"
         id="path890" />
      <path
         d="m 425.82531,5.6693378 0.33762,0.4616424 q -1.48139,0.7096891 -2.30132,1.5916329 -0.81304,0.8750536 -1.09554,2.0670557 0.4203,-0.1722546 0.73725,-0.2480467 0.31695,-0.082682 0.55811,-0.082682 1.10932,0 1.79144,0.7923711 0.68213,0.792372 0.68213,2.087726 0,1.426269 -0.9095,2.384005 -0.90262,0.950845 -2.26687,0.950845 -1.37115,0 -2.21864,-1.095539 -0.8475,-1.10243 -0.8475,-2.873208 0,-1.185112 0.46165,-2.2737609 0.46853,-1.0955395 1.34358,-1.9843734 0.7717,-0.7923714 1.68121,-1.2264531 0.91639,-0.4340817 2.04638,-0.5512148 z m -2.46668,9.0674842 q 0.53743,0 0.8406,-0.585666 0.30317,-0.585665 0.30317,-1.639864 0,-0.957736 -0.30317,-1.48139 -0.29628,-0.523654 -0.8406,-0.523654 -0.55122,0 -0.81304,0.530544 -0.26183,0.530545 -0.26183,1.626084 0,1.012857 0.27561,1.543402 0.2756,0.530544 0.79926,0.530544 z"
         style="font-style:normal;font-variant:normal;font-weight:bold;font-stretch:normal;font-size:14.1111002px;font-family:'Aldine721 BT';-inkscape-font-specification:'Aldine721 BT Bold';letter-spacing:0px;word-spacing:0.529167px;fill:#ffffff;stroke-width:0.26458299"
         id="path892" />
      <path
         d="m 431.62684,13.524149 q 0,0.785482 0.24116,0.985297 0.24116,0.199815 1.1231,0.199815 h 0.17225 v 0.792372 h -5.03672 v -0.792372 h 0.1378 q 0.86127,0 1.10243,-0.199815 0.24116,-0.199815 0.24116,-0.985297 V 7.5572486 q 0,-0.2962779 -0.15848,-0.4065209 -0.15158,-0.1171332 -0.60633,-0.1171332 -0.26183,0 -0.41341,0.00689 -0.1447,0 -0.28939,0.00689 V 6.3996975 q 0.4892,-0.055122 1.26779,-0.2273762 0.78548,-0.1722546 2.21864,-0.5512148 z"
         style="font-style:normal;font-variant:normal;font-weight:bold;font-stretch:normal;font-size:14.1111002px;font-family:'Aldine721 BT';-inkscape-font-specification:'Aldine721 BT Bold';letter-spacing:0px;word-spacing:0.529167px;fill:#ffffff;stroke-width:0.26458299"
         id="path894" />
      <path
         d="m 442.73933,13.524149 q 0,0.785482 0.24116,0.985297 0.24115,0.199815 1.1231,0.199815 h 0.17225 v 0.792372 h -5.03672 v -0.792372 h 0.1378 q 0.86127,0 1.10243,-0.199815 0.24116,-0.199815 0.24116,-0.985297 V 7.5572486 q 0,-0.2962779 -0.15848,-0.4065209 -0.15158,-0.1171332 -0.60634,-0.1171332 -0.26182,0 -0.41341,0.00689 -0.14469,0 -0.28938,0.00689 V 6.3996975 q 0.4892,-0.055122 1.26779,-0.2273762 0.78548,-0.1722546 2.21864,-0.5512148 z"
         style="font-style:normal;font-variant:normal;font-weight:bold;font-stretch:normal;font-size:14.1111002px;font-family:'Aldine721 BT';-inkscape-font-specification:'Aldine721 BT Bold';letter-spacing:0px;word-spacing:0.529167px;fill:#ffffff;stroke-width:0.26458299"
         id="path896" />
      <path
         d="m 449.25747,9.5071712 q 0.57877,-0.4134112 0.87505,-0.8681634 0.29628,-0.4547523 0.29628,-0.9232849 0,-0.5649952 -0.44097,-0.9577358 -0.43408,-0.3996308 -1.06798,-0.3996308 -0.61323,0 -0.99219,0.2893878 -0.37896,0.2824977 -0.37896,0.7372499 0,0.4892032 0.41341,1.0128573 0.4203,0.5167639 1.29536,1.1093199 z m -1.15755,1.6743148 q -0.51677,0.454753 -0.75792,0.895724 -0.24116,0.440972 -0.24116,0.943956 0,0.76481 0.44097,1.233343 0.44786,0.468533 1.16444,0.468533 0.61323,0 1.02664,-0.37896 0.41341,-0.385851 0.41341,-0.943956 0,-0.74414 -1.88102,-2.101507 -0.11024,-0.07579 -0.16536,-0.117133 z m -0.67524,-0.537434 q -0.83371,-0.6683482 -1.24023,-1.3022453 -0.39964,-0.6407872 -0.39964,-1.2884647 0,-1.0266377 0.86128,-1.743217 0.86127,-0.7165793 2.14285,-0.7165793 1.18511,0 1.97059,0.6201167 0.78548,0.6132266 0.78548,1.5296213 0,0.6132265 -0.40652,1.1920021 -0.40652,0.5718854 -1.192,1.0610886 0.95773,0.7510306 1.38492,1.4400486 0.4272,0.682129 0.4272,1.440049 0,1.185112 -0.89573,1.970593 -0.88883,0.778591 -2.25309,0.778591 -1.28846,0 -2.16352,-0.716579 -0.87505,-0.72347 -0.87505,-1.750107 0,-0.599447 0.39274,-1.143771 0.39274,-0.551215 1.46072,-1.371147 z"
         style="font-style:normal;font-variant:normal;font-weight:bold;font-stretch:normal;font-size:14.1111002px;font-family:'Aldine721 BT';-inkscape-font-specification:'Aldine721 BT Bold';letter-spacing:0px;word-spacing:0.529167px;fill:#ffffff;stroke-width:0.26458299"
         id="path898" />
    </g>
    <g
       id="g1994"
       transform="matrix(1.9717586,0,0,1.9717586,-40.056451,-44.690602)">
      <path
         style="fill:#ffffff;stroke:none;stroke-width:0.264583px;stroke-linecap:butt;stroke-linejoin:miter;stroke-opacity:1"
         d="m 31.407459,23.416806 -0.800248,0.06792 -0.389787,0.1506 -0.34254,0.286435 -0.150601,0.313012 -0.239188,0.448847 -0.04134,0.528576 0.211283,0.426552 0.07648,0.03307 0.03411,0.04548 -0.347266,0.120923 -0.09095,0.148828 v 0.810286 l 0.439251,0.0031 -0.07028,0.411345 -0.183968,0.233577 -0.185002,0.267684 -0.133326,0.468188 -0.06821,0.389642 -0.227375,0.522964 -0.168465,0.434081 -0.120923,0.3483 -0.05685,0.530199 -0.09922,0.31006 -0.01447,0.500226 0.02687,0.173633 0.196368,0.134361 0.254249,0.01654 0.0096,-0.116178 0.309864,-0.508646 0.239707,-0.432644 0.03047,-0.322501 0.381709,0.275728 0.04093,0.444336 -0.514495,0.613886 0.111085,0.613884 0.935442,0.222168 0.882825,-0.122777 0.0058,-0.315712 -0.532034,-0.847746 0.660659,-1.27454 0.555419,0.730813 -0.292328,1.508403 1.841656,0.251402 0.263094,-0.397566 0.324406,-0.01835 -0.0028,-0.297366 -1.017297,-0.380024 -0.321559,-1.303774 -0.0877,-1.642872 0.03508,-0.800973 0.695735,-0.40341 0.122483,-0.128492 0.02894,-0.07028 v -0.177765 l 2.352312,0.09095 0.979784,-0.09922 0.01241,-0.810287 -0.09095,-1.054199 -0.405144,-0.111621 -1.308147,0.13865 -0.06438,-0.06424 -0.727604,0.09095 -0.161232,0.09509 -0.425812,0.0186 -0.176721,0.05604 -0.276248,-0.05847 -0.03216,-0.038 -0.06431,-0.04969 h -0.0877 l -0.038,0.01461 -0.07308,0.04093 -0.195858,0.119853 -0.175397,-0.01461 -0.11693,0.03216 -0.11693,-0.716199 -0.286481,-0.42095 -0.04969,-0.277709 z"
         id="path1990"
         sodipodi:nodetypes="ccccccccccccccccccccccccccccccccccccccccccccccccccccccccccccccccccccccccccccccc" />
      <path
         style="fill:#000000;fill-opacity:1;stroke-width:0.0164705"
         d="m 30.197005,32.441687 c -0.01875,-0.01422 -0.09994,-0.02496 -0.230587,-0.03049 -0.200037,-0.0085 -0.266464,-0.02041 -0.251154,-0.04518 0.009,-0.01459 -0.04722,-0.03253 -0.103,-0.03286 -0.02047,-1.32e-4 -0.06047,-0.02246 -0.08891,-0.04964 -0.0471,-0.04501 -0.06795,-0.05596 -0.09877,-0.05189 -0.0222,0.0029 -0.05267,-0.05071 -0.06224,-0.109561 -0.0099,-0.06074 -0.01012,-0.0609 -0.09197,-0.06093 -0.135104,-4.9e-5 -0.194886,-0.05389 -0.185498,-0.167091 0.0094,-0.113501 0.0086,-0.112948 0.162247,-0.110129 0.0718,0.0014 0.134704,-0.0043 0.139778,-0.01253 0.0051,-0.0082 -0.0052,-0.01492 -0.02277,-0.01492 -0.04451,0 -0.05419,-0.04582 -0.05212,-0.246634 0.0018,-0.168475 0.03227,-0.292846 0.06668,-0.27158 0.01914,0.01183 0.04843,-0.04734 0.04843,-0.09785 0,-0.02693 0.01687,-0.05423 0.04747,-0.07686 0.03395,-0.0251 0.04994,-0.05356 0.05617,-0.09996 0.01019,-0.07605 0.03634,-0.112989 0.07997,-0.112989 0.01723,0 0.03788,-0.01667 0.04589,-0.03706 0.008,-0.02038 0.03006,-0.04996 0.04901,-0.06572 0.01895,-0.01576 0.03444,-0.03926 0.03444,-0.05222 0,-0.01296 0.0226,-0.02852 0.05022,-0.03459 l 0.05021,-0.01103 -0.04198,-0.03891 c -0.02309,-0.0214 -0.04198,-0.04667 -0.04198,-0.05616 0,-0.0095 -0.01216,-0.01726 -0.02701,-0.01726 -0.03766,0 -0.07045,-0.04845 -0.07245,-0.107059 -0.0032,-0.09274 -0.02409,-0.121377 -0.04497,-0.0615 -0.012,0.0344 -0.03251,0.05571 -0.0604,0.06271 -0.03708,0.0093 -0.04224,0.01918 -0.04224,0.08092 0,0.137063 -0.100814,0.151351 -0.116826,0.01655 -0.0054,-0.04522 -0.01105,-0.06739 -0.01261,-0.04927 -0.0016,0.01811 -0.01364,0.05147 -0.02683,0.07412 -0.01321,0.02265 -0.04503,0.08194 -0.07073,0.131765 -0.06911,0.13396 -0.124523,0.216944 -0.109986,0.164704 0.0063,-0.02265 0.02049,-0.05229 0.03154,-0.06588 0.03636,-0.04472 0.157196,-0.277922 0.157196,-0.303356 0,-0.01369 0.02158,-0.04949 0.04796,-0.07953 0.02699,-0.03074 0.05857,-0.09527 0.07224,-0.147589 l 0.02428,-0.09297 -0.04341,-0.01659 c -0.02388,-0.0091 -0.06194,-0.02164 -0.08459,-0.02782 -0.02265,-0.0062 -0.056,-0.0241 -0.07412,-0.03982 -0.01811,-0.01572 -0.06778,-0.03797 -0.110351,-0.04943 -0.04258,-0.01146 -0.08975,-0.03448 -0.104838,-0.05114 -0.01508,-0.01667 -0.06001,-0.03519 -0.09984,-0.04117 -0.03983,-0.006 -0.08956,-0.02435 -0.110514,-0.04083 -0.02095,-0.01648 -0.06705,-0.03231 -0.102434,-0.03516 l -0.06434,-0.0052 -0.01342,0.07412 c -0.0074,0.04076 -0.01932,0.137117 -0.02653,0.214117 l -0.01311,0.139998 -0.0054,-0.123529 c -0.0031,-0.07098 -0.0075,-0.09551 -0.01048,-0.05765 -0.02546,0.327847 -0.04644,0.458033 -0.07506,0.465517 -0.01626,0.0043 -0.0304,0.01613 -0.03141,0.0264 -0.02487,0.253333 -0.023,0.719387 0.0032,0.788851 0.02493,0.06621 0.03085,0.06958 0.15103,0.0859 0.04303,0.0059 0.07824,0.01805 0.07824,0.02713 0,0.0091 0.02779,-0.01002 0.06176,-0.04243 0.109581,-0.104559 0.185677,-0.03096 0.119098,0.115192 -0.04529,0.09941 -0.206866,0.114809 -0.25204,0.02402 -0.01126,-0.02265 -0.03136,-0.04217 -0.04466,-0.04339 -0.01329,-0.0012 -0.03158,-0.0031 -0.04064,-0.0041 -0.0091,-9.72e-4 -0.038,-0.02044 -0.06433,-0.04308 -0.02632,-0.02264 -0.06338,-0.04139 -0.08235,-0.04168 -0.0962,-0.0016 -0.108563,-0.181023 -0.04871,-0.707709 0.0046,-0.04076 0.01342,-0.15794 0.01955,-0.260391 0.0099,-0.165104 0.01523,-0.189438 0.04726,-0.214116 0.03148,-0.02425 0.03718,-0.04801 0.04422,-0.184311 0.01358,-0.262831 0.02475,-0.316913 0.07364,-0.356672 0.04314,-0.03508 0.04366,-0.03808 0.04487,-0.255294 0.0014,-0.227728 0.02113,-0.309785 0.08052,-0.332576 0.01428,-0.0055 0.02542,-0.02969 0.02556,-0.05553 3.89e-4,-0.08242 0.03538,-0.126633 0.115426,-0.146038 0.06593,-0.01599 0.07386,-0.02296 0.07489,-0.06588 0.0043,-0.179387 0.03014,-0.262327 0.09133,-0.293086 0.04181,-0.02101 0.0471,-0.07196 0.02203,-0.21198 -0.0076,-0.04244 -0.005,-0.06176 0.0082,-0.06176 0.01058,0 0.01473,-0.0073 0.0092,-0.01628 -0.0055,-0.0089 0.0081,-0.03585 0.03028,-0.05977 0.03012,-0.03248 0.04318,-0.07008 0.05157,-0.148431 0.0062,-0.05772 0.01805,-0.104934 0.0264,-0.104934 0.0083,0 0.01516,-0.01482 0.01516,-0.03294 0,-0.01811 0.0074,-0.03294 0.01648,-0.03294 0.0091,0 0.01648,-0.01156 0.01648,-0.02568 0,-0.01412 -0.0069,-0.02141 -0.01533,-0.0162 -0.0084,0.0052 -0.01999,0.0019 -0.02568,-0.0073 -0.0057,-0.0092 -0.0027,-0.01675 0.0066,-0.01675 0.0093,0 0.01255,-0.0114 0.0072,-0.02532 -0.0053,-0.01393 0.0014,-0.03801 0.01478,-0.05353 0.01348,-0.01552 0.02894,-0.06791 0.03437,-0.116425 0.01008,-0.09006 0.0358,-0.141118 0.06272,-0.124486 0.0083,0.0051 0.02277,-0.0129 0.03223,-0.04004 0.01796,-0.05148 0.05467,-0.07634 0.08506,-0.05755 0.01126,0.007 0.01393,9.72e-4 0.0073,-0.01642 -0.0058,-0.01508 -0.0033,-0.02741 0.0054,-0.02741 0.0088,0 0.01595,-0.01111 0.01595,-0.02471 0,-0.01545 0.01562,-0.0247 0.04169,-0.0247 0.02487,0 0.04578,-0.01163 0.05183,-0.02882 0.0056,-0.01585 0.0278,-0.04799 0.04939,-0.07142 0.04856,-0.05269 0.08038,-0.20941 0.06429,-0.316668 l -0.01157,-0.0772 h -0.18791 c -0.244646,0 -0.227362,0.04124 -0.212844,-0.507756 0.01228,-0.464311 0.01766,-0.496946 0.08209,-0.496946 0.0242,0 0.0406,-0.0095 0.0406,-0.02353 0,-0.05395 0.04913,-0.07529 0.173298,-0.07529 0.08475,0 0.125521,-0.0067 0.134705,-0.0223 0.01945,-0.03293 0.09993,-0.04333 0.122725,-0.01587 0.0484,0.05832 0.263397,0.136993 0.374528,0.137055 0.136958,8.2e-5 0.206536,0.03746 0.230368,0.123774 0.0091,0.03282 0.05115,0.100251 0.09352,0.149849 0.09115,0.106694 0.11296,0.182908 0.09734,0.340175 -0.01261,0.126851 -0.0142,0.128363 -0.169524,0.160323 -0.07483,0.01539 -0.111047,0.03187 -0.12845,0.05843 -0.01333,0.02034 -0.04645,0.04619 -0.07361,0.05744 -0.05737,0.02376 -0.05878,0.07069 -0.0024,0.07873 0.04302,0.0061 0.185102,0.136609 0.185102,0.169974 0,0.01249 0.01405,0.03149 0.03122,0.04222 0.01718,0.01072 0.04435,0.05512 0.06039,0.09867 0.01605,0.04354 0.04289,0.09461 0.05965,0.113475 0.109427,0.123163 0.111269,0.993191 0.0024,1.113537 -0.02675,0.02956 -0.02712,0.03464 -0.0037,0.05187 0.06931,0.05109 0.07956,0.174364 0.01948,0.23444 -0.02148,0.02148 -0.02301,0.03251 -0.0075,0.05406 0.08988,0.124665 0.05066,0.272943 -0.05696,0.215343 -0.03238,-0.01733 -0.0478,-0.0178 -0.07278,-0.0022 -0.01778,0.01111 -0.08926,0.0198 -0.162717,0.0198 -0.13857,0 -0.162018,0.01159 -0.13303,0.06575 0.01334,0.02494 0.02511,0.02971 0.04606,0.01868 0.01546,-0.0082 0.110312,-0.02009 0.210753,-0.02654 l 0.182622,-0.01173 0.01737,0.04692 c 0.0096,0.02581 0.02774,0.07657 0.04041,0.112802 0.02708,0.07739 0.04921,0.08234 0.0686,0.01535 0.04176,-0.144267 0.151409,-0.188235 0.256218,-0.102741 0.02561,0.02089 0.06049,0.04618 0.07752,0.0562 0.02738,0.01611 0.02888,0.02598 0.013,0.0855 -0.02035,0.07624 -0.0086,0.108112 0.03657,0.09952 0.02322,-0.0044 0.03303,-0.02435 0.0392,-0.07971 0.01078,-0.09666 0.05008,-0.106447 0.102103,-0.02542 0.05577,0.08686 0.05613,0.0869 0.449449,0.04279 0.276851,-0.03105 0.319619,-0.06543 0.298178,-0.239718 -0.01405,-0.114094 -0.0179,-0.532627 -0.005,-0.545495 0.03413,-0.03413 0.04764,0.04408 0.05618,0.32511 0.01078,0.354695 0.0092,0.350962 0.144511,0.339235 0.221766,-0.01922 0.469882,-0.190413 0.469882,-0.324209 0,-0.07469 0.0306,-0.231575 0.0499,-0.255814 0.01298,-0.0163 -0.0048,-0.238463 -0.0213,-0.265806 -0.0069,-0.0114 -0.03003,-0.588243 -0.03561,-0.88713 -0.0012,-0.06035 0.0032,-0.06719 0.05163,-0.08145 0.07795,-0.02296 0.09397,-0.07708 0.08055,-0.272021 -0.0069,-0.100817 -0.0051,-0.166373 0.0049,-0.172549 0.03198,-0.01977 0.04738,0.04865 0.03888,0.172728 -0.01829,0.266751 0.02485,0.34141 0.151901,0.262893 0.09128,-0.05641 0.139765,-0.257325 0.101327,-0.419856 -0.01,-0.04228 -0.0092,-0.08034 0.0023,-0.110787 0.01963,-0.052 -0.0077,-0.09542 -0.06015,-0.09542 -0.01574,0 -0.04182,-0.0096 -0.05796,-0.02146 -0.05024,-0.03674 0.0085,-0.07155 0.08607,-0.05104 0.03956,0.01045 0.07648,0.01031 0.106665,-3.89e-4 0.05386,-0.01914 0.09888,0.0018 0.10789,0.04997 0.0032,0.01716 0.01731,0.04415 0.03138,0.06 0.02386,0.02691 0.02115,0.02882 -0.04086,0.02882 -0.07695,0 -0.0897,0.01309 -0.116561,0.119672 -0.04677,0.185544 0.08071,0.257731 0.251532,0.142441 0.04102,-0.02768 0.07458,-0.06136 0.07458,-0.07484 0,-0.01348 0.007,-0.02021 0.01546,-0.01496 0.0085,0.0053 0.02261,-0.0032 0.03135,-0.01883 0.0134,-0.02395 0.02,-0.02498 0.04219,-0.0066 0.04541,0.03768 0.02413,0.182498 -0.02682,0.182498 -0.03507,0 -0.24335,0.13527 -0.24335,0.158046 0,0.01237 -0.01827,0.02708 -0.04059,0.03269 -0.02232,0.0056 -0.04491,0.02381 -0.05019,0.04045 -0.0053,0.01665 -0.03158,0.03999 -0.05843,0.05188 -0.02685,0.01189 -0.05258,0.03346 -0.05718,0.04795 -0.01021,0.0322 -0.07688,0.06428 -0.133571,0.06428 -0.02621,0 -0.04479,0.01089 -0.04954,0.02904 -0.0042,0.01597 -0.03006,0.04193 -0.05752,0.05769 l -0.04993,0.02865 0.0052,0.239763 c 0.0055,0.254265 0.0064,0.258994 0.05119,0.275533 0.03172,0.01169 0.03759,0.06973 0.02976,0.294058 -0.0047,0.13519 0.007,0.160113 0.09838,0.20862 0.101484,0.05389 0.139385,0.09934 0.143192,0.171711 0.03965,0.753757 0.02669,0.870615 -0.09911,0.894171 -0.05113,0.0096 -0.05271,0.01235 -0.04958,0.08708 0.0092,0.219041 0.02263,0.300777 0.05541,0.336839 0.0184,0.02025 0.04424,0.04856 0.05741,0.06291 0.0269,0.02931 0.03298,0.0885 0.0075,0.07274 -0.0099,-0.0061 -0.01638,0.01486 -0.01622,0.05256 1.89e-4,0.04657 0.0044,0.05637 0.01622,0.03803 0.01369,-0.02121 0.01601,-0.0207 0.01622,0.0036 1.48e-4,0.0158 0.0094,0.02483 0.02084,0.02044 0.01564,-0.006 0.0219,0.04235 0.02604,0.200718 0.0048,0.183299 0.0094,0.211767 0.0377,0.234852 0.02355,0.01918 0.03561,0.05736 0.04469,0.141562 0.01,0.09245 0.02127,0.124747 0.05701,0.162992 0.02451,0.02623 0.04457,0.06109 0.04457,0.07746 0,0.02727 0.08142,0.06386 0.142744,0.06416 0.01056,4.9e-5 0.0338,0.02012 0.05163,0.04459 0.03349,0.04598 0.04266,0.04816 0.219948,0.0522 0.09687,0.0022 0.157226,0.03633 0.281624,0.159241 0.03811,0.03766 0.05493,0.04326 0.105256,0.0351 0.113219,-0.01836 0.12407,1.94e-4 0.111482,0.191674 -0.01243,0.188849 -0.02783,0.219017 -0.120244,0.235469 -0.03273,0.0058 -0.07586,0.02549 -0.09584,0.04369 -0.01999,0.01821 -0.07558,0.0419 -0.123529,0.05264 -0.07601,0.01704 -0.08785,0.02513 -0.09234,0.06311 -0.0054,0.04595 -0.0048,0.04628 0.127114,0.06844 0.105515,0.01772 0.141941,0.106291 0.05922,0.143984 -0.02265,0.01031 -0.04117,0.02843 -0.04117,0.04024 0,0.03873 -0.0615,0.05558 -0.202788,0.05558 -0.08327,0 -0.161667,0.0094 -0.195387,0.02353 -0.09665,0.04038 -0.715407,0.03624 -0.816494,-0.0055 -0.05714,-0.02357 -0.128968,-0.03406 -0.266097,-0.03887 -0.165258,-0.0058 -0.191133,-0.01066 -0.215311,-0.04051 -0.02341,-0.02891 -0.05415,-0.03572 -0.207463,-0.04593 -0.168765,-0.01124 -0.233022,-0.02637 -0.255162,-0.06007 -0.0051,-0.0078 -0.0495,-0.02706 -0.09864,-0.04283 -0.14421,-0.04629 -0.174228,-0.224998 -0.05478,-0.326111 0.03707,-0.03138 0.04078,-0.04857 0.0498,-0.230586 0.01,-0.200974 0.031,-0.270798 0.08161,-0.270798 0.02185,0 0.02415,-0.0198 0.01576,-0.135882 -0.0054,-0.07473 -0.01391,-0.209876 -0.01891,-0.300317 -0.005,-0.09044 -0.01634,-0.173182 -0.02522,-0.183873 -0.0089,-0.0107 -0.02063,-0.07381 -0.02612,-0.140271 -0.0071,-0.08546 -0.02128,-0.138813 -0.04857,-0.182265 -0.02122,-0.03379 -0.03858,-0.07245 -0.03858,-0.0859 0,-0.01346 -0.02155,-0.04651 -0.04788,-0.07345 -0.02634,-0.02694 -0.05288,-0.07174 -0.05899,-0.09954 -0.01375,-0.06265 -0.03416,-0.05264 -0.0485,0.0238 -0.0065,0.03439 -0.02668,0.06831 -0.04977,0.08344 -0.0309,0.02025 -0.04127,0.04592 -0.05043,0.124871 -0.0094,0.08083 -0.02043,0.107306 -0.05916,0.141817 -0.03882,0.03459 -0.04762,0.05578 -0.04762,0.114596 0,0.06225 -0.0065,0.0759 -0.04751,0.09943 -0.0527,0.03024 -0.06713,0.09414 -0.06789,0.30061 -3.89e-4,0.117308 -0.0067,0.133882 -0.06166,0.162819 -0.07215,0.038 -0.05143,0.12612 0.03476,0.147822 0.09325,0.02348 0.117123,0.05481 0.11975,0.157183 0.006,0.233242 0.0032,0.219634 0.04784,0.230847 0.02335,0.0059 0.04858,0.02843 0.05724,0.0512 0.0085,0.02239 0.02641,0.04072 0.03978,0.04072 0.06416,0 0.07032,0.391365 0.007,0.446636 -0.01677,0.01465 -0.03051,0.03424 -0.03051,0.04353 0,0.01991 -0.0389,0.03689 -0.08452,0.03689 -0.01782,0 -0.05613,0.01235 -0.08512,0.02747 -0.03615,0.01883 -0.11631,0.03093 -0.255092,0.0385 -0.117181,0.0064 -0.210441,0.01908 -0.221527,0.03018 -0.02858,0.02857 -0.489084,0.0252 -0.527376,-0.0039 z m 0.46815,-0.28581 c 0.02559,-0.05758 0.21238,-0.119413 0.360738,-0.119413 0.04685,0 0.06721,-0.0095 0.08794,-0.04117 0.01484,-0.02265 0.04084,-0.04118 0.05778,-0.04118 0.0421,0 0.0521,-0.0351 0.03027,-0.106238 -0.02828,-0.09215 -0.241764,-0.192355 -0.440325,-0.206679 -0.09292,-0.0067 -0.156126,-0.01992 -0.182054,-0.03809 -0.03975,-0.02784 -0.137716,-0.03693 -0.188404,-0.01749 -0.03141,0.01206 0.02758,0.08848 0.0683,0.08848 0.012,0 0.02183,0.0066 0.02183,0.01469 0,0.01626 -0.118701,0.06767 -0.15623,0.06767 -0.02997,0 -0.140239,0.09562 -0.140239,0.121611 0,0.02667 0.108898,0.128079 0.171193,0.159422 0.05274,0.02654 0.05446,0.03108 0.03548,0.09367 -0.01134,0.03738 0.257311,0.06163 0.273722,0.02471 z m 0.4749,-0.08647 c 0,-0.0091 -0.0033,-0.01648 -0.0073,-0.01648 -0.004,0 -0.01185,0.0074 -0.01745,0.01648 -0.0056,0.0091 -0.0023,0.01648 0.0073,0.01648 0.0096,0 0.01745,-0.0074 0.01745,-0.01648 z m 0.123529,-0.08235 c -0.0056,-0.0091 -0.01716,-0.01648 -0.02568,-0.01648 -0.0085,0 -0.0155,0.0074 -0.0155,0.01648 0,0.0091 0.01156,0.01648 0.02568,0.01648 0.01412,0 0.0211,-0.0074 0.01551,-0.01648 z m 1.767219,-0.167898 c 0.05523,-0.0343 0.08209,-0.03809 0.28336,-0.04002 0.188485,-0.0018 0.232385,-0.0073 0.288234,-0.03571 0.03623,-0.01846 0.09923,-0.03877 0.139998,-0.04512 0.272398,-0.04245 0.195763,-0.270601 -0.09104,-0.271047 -0.09171,-1.47e-4 -0.143128,0.0074 -0.16783,0.02474 -0.01958,0.01371 -0.07322,0.03208 -0.119198,0.0408 -0.06362,0.01206 -0.100247,0.03199 -0.153345,0.08345 -0.08876,0.086 -0.130872,0.107146 -0.241667,0.121314 -0.08678,0.01109 -0.254057,0.078 -0.27344,0.109362 -0.03707,0.05998 0.241642,0.07017 0.334928,0.01224 z m 1.087437,-0.11866 c 0.0051,-0.06185 -0.01288,-0.0914 -0.05586,-0.09201 -0.03274,-3.89e-4 -0.110089,0.135096 -0.08606,0.150828 0.06033,0.03949 0.13645,0.0079 0.141916,-0.05882 z m -0.931411,-0.251302 c -0.01115,-0.0045 -0.03339,-0.0048 -0.04941,-5.84e-4 -0.01603,0.0042 -0.0069,0.0079 0.02027,0.0082 0.02718,3.89e-4 0.04029,-0.0031 0.02914,-0.0076 z M 32.968282,30.88353 c 0,-0.0091 -0.0074,-0.01648 -0.01648,-0.01648 -0.0091,0 -0.01648,0.0074 -0.01648,0.01648 0,0.0091 0.0074,0.01648 0.01648,0.01648 0.0091,0 0.01648,-0.0074 0.01648,-0.01648 z m -2.184599,-0.617743 c 0.132604,-0.132601 -0.02313,-0.271491 -0.195401,-0.174267 -0.04676,0.02639 -0.121481,0.05296 -0.166037,0.05903 -0.205075,0.02796 -0.169471,0.05425 0.08054,0.05946 0.130532,0.0027 0.176096,0.0091 0.176096,0.02484 0,0.01958 0.04298,0.05408 0.06882,0.05524 0.0061,1.94e-4 0.02234,-0.01066 0.03598,-0.0243 z m 0.241527,-0.223336 c 0.02397,-0.05786 -0.0086,-0.110773 -0.05682,-0.09228 -0.02988,0.01148 -0.03275,0.04048 -0.0099,0.100521 0.02122,0.05581 0.04123,0.05334 0.06674,-0.0082 z m -1.309851,-0.08539 c 0.04071,-0.0452 0.07376,-0.105535 0.09327,-0.170289 0.02314,-0.07679 0.04035,-0.104908 0.07347,-0.119998 0.03864,-0.01761 0.04218,-0.02623 0.03314,-0.08089 -0.0056,-0.03365 -0.01019,-0.08921 -0.01029,-0.12346 -1.29e-4,-0.04426 -0.0085,-0.06529 -0.029,-0.07268 -0.01586,-0.0057 -0.0485,-0.02402 -0.07254,-0.04066 -0.0702,-0.04859 -0.07475,-0.04005 -0.08688,0.163268 -0.01455,0.244067 -0.04446,0.301737 -0.176864,0.341054 -0.136103,0.04042 -0.395077,0.01146 -0.406028,-0.0454 -0.0057,-0.02961 -0.06323,-0.05115 -0.111682,-0.04182 -0.05003,0.0096 -0.02684,0.03816 0.038,0.04675 0.04543,0.006 0.06381,0.0171 0.06833,0.04118 0.0089,0.04752 0.03198,0.05711 0.137939,0.05739 0.08698,1.95e-4 0.09521,0.0035 0.10478,0.04164 0.02675,0.106581 0.249596,0.10911 0.344361,0.0039 z m 0.294499,0.04377 c 0.02292,-0.0088 0.02291,-0.01362 -1.15e-4,-0.04874 -0.01821,-0.02779 -0.02191,-0.05454 -0.0129,-0.09318 0.01638,-0.07017 0.0096,-0.130801 -0.01772,-0.15909 -0.04292,-0.04439 -0.0625,-0.0034 -0.05315,0.111262 0.007,0.08629 0.0033,0.115121 -0.01786,0.138751 -0.04049,0.04517 0.02777,0.07939 0.101745,0.051 z m 0.30667,-0.122004 c 0,-0.04545 0.04193,-0.07014 0.09815,-0.0578 0.03315,0.0073 0.05009,0.02101 0.05009,0.04062 0,0.07218 0.125708,0.09933 0.15881,0.03429 0.01477,-0.02902 0.01562,-0.04656 0.003,-0.06176 -0.01358,-0.01636 -0.0083,-0.02123 0.02302,-0.02123 0.02235,0 0.05405,-0.01482 0.07045,-0.03294 0.05457,-0.0603 0.124423,-0.02742 0.148738,0.07 0.01294,0.05183 0.07666,0.06255 0.131857,0.02219 0.03082,-0.02253 0.04616,-0.141511 0.02144,-0.166233 -0.02866,-0.02866 -0.418451,-0.04074 -0.494987,-0.01535 -0.04271,0.01418 -0.09294,0.02341 -0.111619,0.02052 -0.02289,-0.0035 -0.04066,0.0082 -0.05452,0.03593 -0.0113,0.02264 -0.03713,0.04355 -0.05739,0.04646 -0.05675,0.0082 -0.09792,0.09757 -0.05827,0.126562 0.03499,0.02558 0.07122,0.0046 0.07122,-0.04126 z m -0.727487,-0.292351 c 0.0082,-0.01585 0.01869,-0.07361 0.02341,-0.128345 0.01196,-0.139004 0.06903,-0.246248 0.148194,-0.278543 0.07237,-0.02952 0.08022,-0.06667 0.01743,-0.08243 -0.156763,-0.03934 -0.249902,-0.210298 -0.1623,-0.297901 0.02224,-0.02224 0.04513,-0.06548 0.05087,-0.0961 0.01015,-0.0541 0.05766,-0.09256 0.114343,-0.09256 0.03097,0 0.05145,0.140774 0.02909,0.20001 -0.02218,0.05876 0.01615,0.09646 0.09807,0.09646 0.08058,0 0.102348,-0.03155 0.08819,-0.127779 -0.03148,-0.21398 -0.03435,-0.226296 -0.04597,-0.197512 -0.0084,0.02076 -0.03021,0.02882 -0.07803,0.02882 -0.08195,0 -0.08422,-0.01834 -0.01698,-0.137462 0.02718,-0.04815 0.04941,-0.09936 0.04941,-0.11378 0,-0.01443 0.01953,-0.04944 0.0434,-0.0778 0.03236,-0.03846 0.0461,-0.07753 0.05403,-0.153616 0.01739,-0.166844 0.05,-0.187425 0.102982,-0.06498 0.01862,0.04303 0.04885,0.09014 0.06719,0.104698 0.02624,0.02083 0.0358,0.05445 0.04489,0.157812 0.01624,0.184722 0.02803,0.197727 0.120342,0.132782 0.06306,-0.04436 0.09299,-0.07886 0.0937,-0.107962 1.94e-4,-0.01183 0.01531,-0.05394 0.03338,-0.09361 0.06407,-0.140652 0.08361,-0.394762 0.03496,-0.454834 -0.052,-0.06422 -0.117229,-0.02256 -0.117229,0.07488 0,0.05591 -0.0077,0.07799 -0.0315,0.09075 -0.01733,0.0093 -0.04142,0.04659 -0.05353,0.08293 -0.03295,0.09883 -0.05497,0.08076 -0.05497,-0.04511 0,-0.09963 0.0039,-0.11287 0.03721,-0.127499 0.0505,-0.02215 0.06166,-0.06741 0.02894,-0.117349 -0.03156,-0.04816 -0.01535,-0.07925 0.04982,-0.09561 0.02437,-0.0061 0.0405,-0.02205 0.0405,-0.04 0,-0.01642 0.0185,-0.0663 0.04111,-0.110863 0.04959,-0.09775 0.05172,-0.153574 0.0089,-0.234231 -0.01778,-0.0335 -0.03623,-0.08045 -0.04102,-0.104323 -0.0048,-0.02388 -0.02732,-0.06094 -0.05006,-0.08235 -0.02294,-0.0216 -0.04594,-0.06636 -0.05164,-0.100502 -0.02136,-0.127796 -0.383749,-0.133726 -0.410476,-0.0067 -0.006,0.02849 -0.02801,0.07034 -0.04891,0.09298 -0.02091,0.02265 -0.04604,0.0715 -0.05584,0.108562 -0.0098,0.03706 -0.0331,0.08121 -0.05177,0.0981 -0.03247,0.02939 -0.03385,0.05604 -0.0066,0.1271 0.0095,0.02464 -0.03555,0.04834 -0.13246,0.06975 -0.07032,0.01554 -0.09068,0.03776 -0.09068,0.09896 0,0.03914 -0.01119,0.06106 -0.04118,0.08072 -0.0629,0.04121 -0.05201,0.07228 0.02882,0.08224 0.0385,0.0047 0.104203,0.01292 0.146011,0.01815 0.175317,0.02198 0.168164,0.07496 -0.01212,0.0897 -0.121887,0.01 -0.20342,0.05826 -0.203816,0.120724 -4.5e-5,0.0071 -0.0285,0.04878 -0.06322,0.09272 -0.0514,0.06502 -0.06681,0.102097 -0.08287,0.199336 -0.01124,0.06805 -0.03368,0.137199 -0.05215,0.160683 -0.09048,0.115025 -0.03104,0.17351 0.190284,0.187223 0.301831,0.01869 0.30683,0.07261 0.0079,0.08494 -0.09512,0.0039 -0.193576,0.01687 -0.218795,0.02877 l -0.04585,0.02164 0.0536,0.02254 c 0.105141,0.04421 0.114117,0.06236 0.07416,0.149949 -0.01946,0.04266 -0.04013,0.132115 -0.04633,0.200538 -0.0061,0.06794 -0.01916,0.182627 -0.02889,0.254857 -0.02128,0.157891 -0.02227,0.156667 0.137035,0.168716 0.08763,0.0066 0.138041,0.01887 0.162778,0.03952 0.04512,0.03768 0.05578,0.038 0.07422,0.0022 z M 29.81006,27.9244 c -0.02913,-0.01175 -0.02559,-0.066 0.0051,-0.07777 0.02906,-0.01115 0.155518,0.04783 0.155518,0.07254 0,0.0164 -0.12298,0.0204 -0.160587,0.0052 z m 0.181177,-0.378824 c -0.03328,-0.01342 -0.02372,-0.03414 0.02093,-0.04535 0.04611,-0.01157 0.113071,0.01619 0.09797,0.04062 -0.01006,0.01626 -0.0831,0.01918 -0.118899,0.0047 z m 0.997262,2.01081 c 0.02299,-0.0068 0.03584,-0.02172 0.03273,-0.03792 -0.0068,-0.03513 -0.840097,-0.04961 -0.881416,-0.01533 -0.08403,0.06974 0.639961,0.115158 0.848691,0.05324 z m 1.061552,-0.116701 c -0.01132,-0.0046 -0.02985,-0.0046 -0.04118,0 -0.01132,0.0046 -0.0021,0.0083 0.02059,0.0083 0.02265,0 0.03191,-0.0037 0.02059,-0.0083 z m -3.006869,-0.199087 c -0.0041,-0.01586 -0.0075,-0.0029 -0.0075,0.02882 0,0.03171 0.0034,0.04468 0.0075,0.02882 0.0041,-0.01586 0.0041,-0.04179 0,-0.05765 z m 0.845114,-0.01138 c 0,-0.004 -0.0074,-0.01185 -0.01648,-0.01745 -0.0091,-0.0056 -0.01648,-0.0023 -0.01648,0.0073 0,0.0096 0.0074,0.01745 0.01648,0.01745 0.0091,0 0.01648,-0.0033 0.01648,-0.0073 z m 0.20588,-0.09133 c 0,-0.04977 -0.03959,-0.06111 -0.110641,-0.03168 l -0.05039,0.02087 0.03806,0.03082 c 0.05449,0.04412 0.12297,0.03298 0.12297,-0.02001 z m -0.20588,-0.100021 c 0,-0.0085 -0.0074,-0.01551 -0.01648,-0.01551 -0.0091,0 -0.01648,0.01156 -0.01648,0.02568 0,0.01412 0.0074,0.0211 0.01648,0.0155 0.0091,-0.0056 0.01648,-0.01716 0.01648,-0.02568 z m 0.01834,-2.338089 c 0.03274,-0.0091 0.07787,-0.03314 0.100288,-0.05344 0.02242,-0.0203 0.0753,-0.06084 0.11753,-0.09009 l 0.07677,-0.05319 v -0.108215 c 0,-0.141431 -0.02927,-0.198047 -0.115811,-0.223974 -0.06571,-0.01969 -0.117156,-0.06868 -0.246541,-0.234818 l -0.05765,-0.07402 -0.151006,-9.72e-4 c -0.2438,-0.0016 -0.235902,-0.01587 -0.234731,0.423589 3.89e-4,0.178649 7.79e-4,0.337696 7.79e-4,0.353436 -1.39e-4,0.07338 0.326246,0.112856 0.510335,0.06172 z m -0.677173,5.476692 c 0,-0.0136 0.01113,-0.02471 0.02471,-0.02471 0.0136,0 0.02471,0.01113 0.02471,0.02471 0,0.0136 -0.01111,0.02471 -0.02471,0.02471 -0.0136,0 -0.02471,-0.01111 -0.02471,-0.02471 z m 0.06588,-0.0082 c 0,-0.0091 0.0079,-0.01648 0.01745,-0.01648 0.0096,0 0.01286,0.0074 0.0073,0.01648 -0.0056,0.0091 -0.01344,0.01648 -0.01745,0.01648 -0.004,0 -0.0073,-0.0074 -0.0073,-0.01648 z m -0.05353,-0.07679 c 0.01132,-0.0046 0.02985,-0.0046 0.04118,0 0.01132,0.0046 0.0021,0.0083 -0.02059,0.0083 -0.02265,0 -0.03191,-0.0037 -0.02059,-0.0083 z m -0.527056,-0.64235 c 0.01132,-0.0046 0.02985,-0.0046 0.04117,0 0.01132,0.0046 0.0021,0.0083 -0.02059,0.0083 -0.02265,0 -0.03191,-0.0037 -0.02059,-0.0083 z m 0.135194,-0.0599 c 0.04039,-0.04259 0.07621,-0.07743 0.07961,-0.07743 0.01669,0 -0.01181,0.03277 -0.07892,0.09079 l -0.07412,0.06407 z m -0.226366,0.0404 c -0.02532,-0.01607 -0.091,-0.13467 -0.08044,-0.145237 0.0041,-0.0041 0.02119,0.02245 0.03804,0.05895 0.01788,0.03875 0.04776,0.07286 0.07181,0.08199 0.02265,0.0086 0.03006,0.01611 0.01648,0.01667 -0.0136,5.84e-4 -0.03423,-0.005 -0.04588,-0.01239 z m 0.353328,-0.04645 c -0.052,-0.052 0.01023,-0.20128 0.06726,-0.161338 0.05523,0.03868 0.05204,0.134494 -0.0052,0.156255 -0.05022,0.01908 -0.04822,0.01893 -0.06207,0.0051 z m -0.03515,-0.129018 c 0.005,-0.02718 0.02636,-0.06423 0.04748,-0.08235 0.02113,-0.01811 0.04704,-0.05984 0.05758,-0.09271 0.01054,-0.03288 0.03459,-0.07364 0.05343,-0.09059 0.01885,-0.01694 0.04033,-0.04564 0.04775,-0.06376 0.01189,-0.02902 0.0136,-0.02942 0.01453,-0.0033 5.83e-4,0.01628 -0.01749,0.04678 -0.04013,0.06777 -0.04593,0.04257 -0.0532,0.06267 -0.01774,0.04906 0.03119,-0.01196 0.09699,0.05527 0.0849,0.08676 -0.0052,0.01364 -0.0095,0.03372 -0.0095,0.04464 0,0.05108 -0.09747,0.02833 -0.113281,-0.02645 -0.0085,-0.02956 -0.01619,-0.0412 -0.017,-0.02586 -7.78e-4,0.01535 -0.01817,0.03957 -0.03854,0.05384 -0.02038,0.01428 -0.04639,0.0499 -0.0578,0.07917 l -0.02074,0.05322 z m -0.407646,-0.172906 c 0.0068,-0.142686 0.01646,-0.201564 0.03918,-0.238821 0.01659,-0.0272 0.02995,-0.03833 0.02969,-0.02474 -1.95e-4,0.0136 -0.01134,0.03909 -0.02464,0.05668 -0.01459,0.01928 -0.02475,0.07157 -0.02562,0.131763 -7.79e-4,0.05489 -0.0073,0.136853 -0.01453,0.182146 -0.0083,0.05195 -0.0098,0.01245 -0.0041,-0.107023 z m 0.657606,-0.09267 c -0.0191,-0.0191 -0.01327,-0.09652 0.0096,-0.127843 0.03665,-0.05012 0.107505,0.01889 0.08509,0.08288 -0.01582,0.04516 -0.06919,0.0705 -0.09472,0.04497 z m 0.09353,-0.194496 c -0.01088,-0.02836 9.72e-4,-0.08634 0.02534,-0.123868 0.02009,-0.03094 0.100323,0.0072 0.09952,0.04732 -0.0014,0.06375 -0.105302,0.127522 -0.12486,0.07655 z m -0.688354,-0.10494 c 0.0021,-0.05161 0.01183,-0.116082 0.02158,-0.143258 l 0.01772,-0.04941 -0.0098,0.05765 c -0.0054,0.03171 -0.0091,0.09247 -0.0083,0.135036 7.78e-4,0.04256 -0.0045,0.08109 -0.01183,0.08561 -0.0073,0.0045 -0.01158,-0.03401 -0.0095,-0.08562 z m 0.04378,-0.340904 c 1.83e-4,-0.03624 0.0036,-0.04912 0.0075,-0.02863 0.0039,0.02049 0.0038,0.05013 -3.89e-4,0.06588 -0.0041,0.01574 -0.0074,-9.73e-4 -0.0072,-0.03725 z m -0.05307,-0.694506 c -1.94e-4,-0.01963 -0.0098,-0.03942 -0.02109,-0.04399 -0.01132,-0.0046 -0.01317,-0.0088 -0.0041,-0.0094 0.03955,-0.0025 0.0617,0.02708 0.04359,0.05825 -0.01685,0.029 -0.01792,0.02872 -0.01838,-0.0049 z m 4.339481,-1.158426 c 0.0056,-0.0091 0.01344,-0.01648 0.01745,-0.01648 0.004,0 0.0073,0.0074 0.0073,0.01648 0,0.0091 -0.0078,0.01648 -0.01745,0.01648 -0.0096,0 -0.01286,-0.0074 -0.0073,-0.01648 z m -1.037403,-0.246676 c -0.01523,-0.02466 -0.03156,-0.568827 -0.01811,-0.603752 0.02783,-0.07226 0.04719,0.04171 0.05533,0.325774 0.008,0.278037 -6.6e-5,0.338099 -0.03723,0.277978 z m -0.129902,-0.839933 c -0.01745,-0.04362 -0.04744,-0.07962 -0.08457,-0.101525 -0.03164,-0.01868 -0.05753,-0.04304 -0.05753,-0.05415 0,-0.01111 -0.01889,-0.03795 -0.04198,-0.05964 -0.07003,-0.0658 0.05459,-0.09332 0.139224,-0.03075 0.02557,0.01891 0.0634,0.03188 0.08405,0.02882 0.07045,-0.01043 0.05124,-0.357862 -0.01987,-0.35942 -0.0063,-1.33e-4 -0.0313,0.02569 -0.05548,0.05739 -0.02418,0.03171 -0.05613,0.05765 -0.07099,0.05765 -0.01486,0 -0.03696,0.01591 -0.04911,0.03536 -0.01755,0.02809 -0.02496,0.03071 -0.03607,0.01272 -0.0085,-0.01379 -0.0056,-0.03243 0.0075,-0.04771 0.05333,-0.06216 0.05783,-0.230961 0.0062,-0.230961 -0.03512,0 -0.0757,0.03501 -0.08541,0.07368 -0.01675,0.06674 -0.121761,0.05882 -0.166505,-0.01255 -0.02718,-0.04335 -0.045,-0.05366 -0.09882,-0.05712 -0.145472,-0.0094 -0.17031,-0.01873 -0.175798,-0.06633 -0.0088,-0.07613 -0.276922,-0.07105 -0.276922,0.0053 0,0.01327 -0.0093,0.02413 -0.02059,0.02413 -0.01189,0 -0.02059,-0.02086 -0.02059,-0.04941 v -0.04941 h 0.161764 c 0.121831,0 0.167863,0.0061 0.18647,0.02471 0.01408,0.01408 0.05433,0.0247 0.09364,0.0247 0.03791,0 0.09378,0.0071 0.12415,0.01583 0.03037,0.0087 0.202277,0.01724 0.382016,0.01895 0.219923,0.0021 0.329017,0.009 0.333579,0.02122 0.0164,0.04383 -0.01659,0.18602 -0.05117,0.22061 -0.02608,0.02608 -0.03633,0.05611 -0.03633,0.106436 0,0.08457 -0.02503,0.178354 -0.05207,0.195062 -0.01086,0.0067 -0.02156,0.02205 -0.02379,0.0341 -0.04369,0.235597 -0.05674,0.257906 -0.09497,0.162355 z m 0.820445,-0.238693 c -0.01224,-0.06521 5.84e-4,-0.11494 0.02557,-0.09948 0.02104,0.01299 0.02182,0.134891 9.73e-4,0.147793 -0.0086,0.0053 -0.02053,-0.01642 -0.02651,-0.04832 z m -1.135486,-0.09117 c -0.0056,-0.0091 0.0051,-0.01648 0.02373,-0.01648 0.01866,0 0.03391,0.0074 0.03391,0.01648 0,0.0091 -0.01068,0.01648 -0.02373,0.01648 -0.01305,0 -0.02831,-0.0074 -0.03391,-0.01648 z M 31.1245,26.990832 c -0.0096,-0.0096 -0.01739,-0.02704 -0.01739,-0.03881 0,-0.01177 -0.01,-0.02141 -0.02215,-0.02141 -0.02815,0 -0.08038,-0.05669 -0.06573,-0.07134 0.0264,-0.0264 0.07131,-0.0089 0.08152,0.03178 0.013,0.05178 0.09448,0.04569 0.133469,-0.01 0.04042,-0.05771 0.172349,0.03232 0.149188,0.101799 -0.0073,0.0218 -0.237963,0.02889 -0.258899,0.008 z m 1.361092,-0.05427 c -0.01696,-0.01696 -0.01387,-0.07183 0.0041,-0.07183 0.0085,0 0.02004,0.0074 0.0256,0.01634 0.01272,0.02059 -0.0142,0.07096 -0.02966,0.05549 z m 3.331335,-0.110351 c -0.0041,-0.0038 -0.139033,-0.01163 -0.299795,-0.01749 -0.160766,-0.0059 -0.311335,-0.01788 -0.334601,-0.02673 -0.02327,-0.0089 -0.06533,-0.01609 -0.09346,-0.01609 -0.02814,0 -0.06286,-0.01017 -0.07716,-0.02263 -0.02058,-0.01792 -0.159053,-0.02497 -0.664293,-0.03386 l -0.638288,-0.01124 -0.01583,0.04164 c -0.01797,0.04728 -0.08141,0.06995 -0.126639,0.04525 -0.03877,-0.02118 -0.09797,-0.164019 -0.07676,-0.185229 0.04444,-0.04445 1.875019,-0.0076 2.006704,0.04034 0.113365,0.04131 0.66882,0.05586 0.699967,0.01834 0.02368,-0.02853 0.03598,-0.196647 0.0506,-0.691427 l 0.0044,-0.148234 0.0129,0.197646 c 0.04747,0.727176 0.03329,0.694723 0.261501,0.598842 0.112339,-0.0472 0.129258,-0.05011 0.192684,-0.03315 0.08228,0.02201 0.13949,0.0054 0.176549,-0.05111 0.03629,-0.05538 0.02232,-0.75123 -0.01626,-0.810115 -0.02057,-0.03139 -0.02479,-0.09076 -0.02249,-0.316259 0.0055,-0.538424 -0.01521,-0.615513 -0.165052,-0.615012 -0.113396,3.89e-4 -0.121257,0.01058 -0.117952,0.153145 0.0016,0.07092 -0.0044,0.128437 -0.01418,0.134471 -0.01126,0.007 -0.01706,-0.03738 -0.01706,-0.130425 0,-0.211983 -0.221789,-0.320132 -0.354893,-0.173055 -0.0269,0.02973 -0.03162,0.03022 -0.05826,0.0061 -0.03971,-0.03594 -0.152642,-0.04855 -0.226083,-0.02524 -0.03663,0.01163 -0.211205,0.02141 -0.439577,0.02464 -0.208353,0.003 -0.397352,0.01054 -0.419998,0.0169 -0.03194,0.0089 -0.04604,0.0036 -0.06285,-0.02385 -0.04048,-0.0661 0.0054,-0.07675 0.366908,-0.0851 0.268465,-0.0062 0.338758,-0.0127 0.371848,-0.03438 0.02244,-0.01471 0.05557,-0.02649 0.07362,-0.02618 0.01805,3.89e-4 0.0847,-0.0079 0.148111,-0.01821 0.223398,-0.03636 0.73449,0.0049 0.783001,0.06317 0.01852,0.02227 0.04612,0.03003 0.102474,0.02881 0.116178,-0.0025 0.139113,0.02962 0.151699,0.212456 0.0056,0.08153 0.01685,0.17047 0.02494,0.197646 0.0081,0.02718 0.0186,0.223587 0.02332,0.436467 0.0047,0.212882 0.01372,0.540265 0.01999,0.727517 0.01552,0.463094 0.01852,0.45771 -0.256298,0.458179 -0.09196,1.65e-4 -0.112179,0.006 -0.151215,0.04335 l -0.04506,0.04317 -0.384815,0.0069 c -0.211646,0.0038 -0.388187,0.0038 -0.392312,3.3e-5 z m -3.477165,-0.05688 c -0.08583,-0.08739 -0.105822,-0.09994 -0.195166,-0.122479 -0.08809,-0.02222 -0.09057,-0.02444 -0.09564,-0.08526 -0.01,-0.119825 0.117226,-0.17757 0.16931,-0.07685 0.03371,0.06519 0.06272,0.07158 0.320757,0.07061 0.158313,-5.84e-4 0.239136,0.006 0.279527,0.0229 l 0.05682,0.02374 -0.06395,0.06549 c -0.07452,0.07631 -0.119146,0.08219 -0.171016,0.02254 -0.0601,-0.06912 -0.207784,-0.02174 -0.218644,0.07014 -0.0071,0.0599 -0.02969,0.06243 -0.082,0.0092 z m -1.455007,0.01303 c -0.02761,-0.01187 -0.02427,-0.01434 0.02059,-0.01531 0.02944,-5.84e-4 0.05353,0.0063 0.05353,0.01531 0,0.01955 -0.02861,0.01955 -0.07412,0 z m 1.276239,-0.403799 c -0.01286,-0.0155 -0.02733,-0.06194 -0.03217,-0.103219 -0.01012,-0.08646 -0.04383,-0.110293 -0.05912,-0.04179 -0.02052,0.09191 -0.02592,0.102569 -0.05694,0.112416 -0.0508,0.01613 -0.09615,-0.01968 -0.108534,-0.08568 l -0.01134,-0.0605 -0.03707,0.04649 c -0.02955,0.03706 -0.05402,0.04812 -0.120663,0.05452 -0.0612,0.0059 -0.08609,0.01589 -0.09292,0.0374 -0.01224,0.03853 -0.05225,0.05284 -0.09053,0.03235 -0.01687,-0.009 -0.06058,-0.01642 -0.09714,-0.01642 -0.139527,0 -0.413338,-0.192172 -0.413338,-0.290096 0,-0.02547 -0.02195,-0.04905 -0.07412,-0.07962 -0.08532,-0.05 -0.08493,-0.04882 -0.04027,-0.122069 0.03198,-0.05245 0.03531,-0.05389 0.06426,-0.02768 0.04097,0.03708 0.17083,0.07476 0.25765,0.07476 0.03879,0 0.07444,0.0063 0.07922,0.01406 0.01323,0.02142 -0.06961,0.05321 -0.111351,0.04273 -0.03679,-0.0092 -0.109816,0.04722 -0.08856,0.06847 0.02108,0.02108 0.615216,0.04078 0.76124,0.02524 0.113127,-0.01204 0.160415,-0.06815 0.05743,-0.06815 -0.02871,0 -0.09323,-0.01192 -0.143383,-0.02651 -0.111907,-0.03253 -0.09011,-0.05528 0.05317,-0.05549 0.138609,-1.94e-4 0.357361,-0.03437 0.388354,-0.06066 0.04913,-0.04168 0.179878,-0.02876 0.179878,0.01778 0,0.09755 -0.03792,0.117265 -0.09633,0.05008 -0.02002,-0.02302 -0.04359,-0.0374 -0.05238,-0.03197 -0.02457,0.01519 -0.01897,0.08379 0.0087,0.106762 0.02398,0.01991 0.03495,0.132501 0.01486,0.15259 -0.02629,0.02629 -0.05604,-0.01253 -0.05604,-0.07314 0,-0.05799 -0.0041,-0.06468 -0.0365,-0.06 -0.0573,0.0083 -0.07983,0.124191 -0.0317,0.163162 0.03653,0.02958 0.04745,0.134661 0.02098,0.201929 -0.01124,0.02858 -0.01338,0.02872 -0.03535,0.0023 z m 0.309825,-0.703841 c -0.0061,-0.121518 0.0028,-0.156584 0.03485,-0.136769 0.01893,0.01169 0.0249,0.185838 0.0079,0.230127 -0.02127,0.05544 -0.03696,0.0212 -0.04275,-0.09336 z m -2.888011,-0.07967 c -0.03581,-0.03702 -0.09105,-0.0797 -0.122753,-0.09483 l -0.05765,-0.02752 -0.0031,-0.139871 c -0.003,-0.137171 0.01222,-0.34752 0.05183,-0.716339 0.0088,-0.08167 0.02129,-0.122499 0.04291,-0.14 0.01887,-0.01527 0.0361,-0.06077 0.04513,-0.119167 0.01095,-0.0708 0.02501,-0.102646 0.05615,-0.127143 0.02285,-0.01798 0.04585,-0.0542 0.05111,-0.0805 0.0053,-0.0263 0.03217,-0.07043 0.0598,-0.09806 0.02763,-0.02763 0.05032,-0.06008 0.05042,-0.0721 1.94e-4,-0.03236 0.140216,-0.178325 0.170979,-0.178325 0.01457,0 0.02649,-0.0105 0.02649,-0.02333 0,-0.01282 0.02223,-0.03317 0.04941,-0.0452 0.02718,-0.01202 0.04941,-0.02719 0.04941,-0.03368 0,-0.02555 0.07416,-0.07897 0.109614,-0.07897 0.02073,0 0.06266,-0.02514 0.0937,-0.05618 0.07632,-0.07632 0.133068,-0.10296 0.249636,-0.117185 0.05434,-0.0066 0.125509,-0.02552 0.158144,-0.04197 0.121887,-0.06145 0.822363,-0.04735 0.934491,0.01881 0.04517,0.02665 0.09981,0.03814 0.219673,0.0462 0.126694,0.0085 0.167406,0.0176 0.197724,0.04415 0.021,0.01838 0.06597,0.04598 0.09994,0.0613 l 0.06177,0.02787 v 0.131904 c 0,0.124659 0.0026,0.13423 0.04757,0.174287 0.02616,0.02331 0.05177,0.06339 0.05691,0.08907 0.0051,0.02567 0.0282,0.06703 0.05126,0.09191 0.02305,0.02488 0.04192,0.05191 0.04192,0.06008 0,0.02039 0.07794,0.09167 0.151385,0.138451 0.05245,0.03341 0.0615,0.04839 0.06588,0.109129 0.0045,0.06281 0.0099,0.07096 0.04975,0.07555 0.02459,0.0028 0.08221,0.03891 0.128198,0.08026 l 0.08354,0.0751 -0.06848,0.06322 c -0.066,0.06093 -0.07017,0.06235 -0.114911,0.03922 -0.02553,-0.01321 -0.05054,-0.01735 -0.05557,-0.0092 -0.02095,0.03391 -0.02231,0.236215 -0.0019,0.28658 0.0632,0.156107 0.01963,0.566302 -0.04845,0.456143 -0.01566,-0.02533 -0.09285,-0.01953 -0.124782,0.0094 -0.02633,0.02383 -0.0344,0.01999 -0.103805,-0.04941 -0.04139,-0.04139 -0.06519,-0.07525 -0.0529,-0.07525 0.02781,0 0.04437,-0.05838 0.02864,-0.100916 -0.01175,-0.03175 -0.150684,0.09106 -0.150684,0.133189 0,0.02672 -0.06297,0.03571 -0.09779,0.01397 -0.05162,-0.03224 -0.04435,-0.105504 0.01545,-0.155817 0.06711,-0.05647 0.07044,-0.157364 0.0068,-0.207389 -0.03284,-0.02583 -0.03754,-0.03666 -0.02059,-0.04741 0.03369,-0.02136 0.05474,-0.01735 0.0957,0.01817 0.04898,0.04248 0.06628,0.02954 0.06628,-0.04958 0,-0.06393 -7.78e-4,-0.06466 -0.09039,-0.09073 -0.04971,-0.01445 -0.09604,-0.03593 -0.10294,-0.04773 -0.0069,-0.01181 -0.04419,-0.03746 -0.08286,-0.05703 -0.07011,-0.03547 -0.07717,-0.07354 -0.02018,-0.108759 0.132956,-0.08217 -0.297352,-0.13803 -0.477734,-0.06201 l -0.05765,0.02429 0.09882,0.03277 c 0.182944,0.06067 0.178432,0.08919 -0.01759,0.11117 -0.103866,0.01165 -0.134886,0.02156 -0.153055,0.04893 -0.01904,0.02869 -0.03968,0.03432 -0.125819,0.03432 -0.164783,0 -0.181579,-0.05701 -0.02883,-0.09785 0.115741,-0.03095 0.07874,-0.07358 -0.0795,-0.09161 -0.187463,-0.02135 -0.212209,-0.0414 -0.08931,-0.07235 0.04077,-0.01027 0.08214,-0.03153 0.09193,-0.04725 0.01443,-0.02317 0.03665,-0.02751 0.117352,-0.0229 0.08242,0.0047 0.108005,-5.84e-4 0.148692,-0.03065 0.04096,-0.03028 0.05583,-0.03328 0.08929,-0.01803 0.04872,0.0222 0.09526,0.02336 0.13353,0.0033 0.03921,-0.02052 0.283025,-0.05506 0.356084,-0.05044 0.06739,0.0043 0.214933,0.0046 0.318508,7.78e-4 0.116841,-0.0043 0.137631,-0.110326 0.0235,-0.119847 -0.05643,-0.0047 -0.06016,-0.0085 -0.06138,-0.06266 -7.78e-4,-0.03171 -0.01157,-0.07618 -0.02411,-0.09882 -0.06025,-0.108782 -0.09796,-0.227988 -0.09804,-0.309906 -1.32e-4,-0.157298 -0.09272,-0.223595 -0.350518,-0.251013 -0.08713,-0.0093 -0.162093,-0.02686 -0.188688,-0.04429 -0.08173,-0.05355 -0.44567,-0.04155 -0.580865,0.01916 -0.07912,0.03553 -0.130698,0.04769 -0.197646,0.0466 -0.101387,-0.0016 -0.456109,0.06661 -0.52414,0.100852 -0.02425,0.01222 -0.06361,0.02687 -0.08746,0.03257 -0.03828,0.0092 -0.08973,0.04753 -0.181653,0.135478 -0.01506,0.01441 -0.03227,0.04596 -0.03824,0.07013 -0.006,0.02416 -0.02994,0.05929 -0.05326,0.07806 -0.08971,0.07222 -0.08519,0.481572 0.0062,0.559873 l 0.03968,0.034 -0.0335,0.03031 c -0.03808,0.03446 -0.04332,0.06732 -0.01262,0.0791 0.04339,0.01665 0.402904,0.01237 0.489716,-0.0058 0.04982,-0.01045 0.12394,-0.02404 0.164704,-0.03021 0.04077,-0.0062 0.09469,-0.02481 0.119835,-0.04141 0.04391,-0.029 0.047,-0.02903 0.07823,-7.78e-4 0.04475,0.04049 0.04072,0.08407 -0.01089,0.117899 -0.07128,0.04671 -0.08822,0.113796 -0.08954,0.354716 -0.0021,0.376127 -0.02851,0.457586 -0.148523,0.457586 -0.03796,0 -0.05352,-0.01214 -0.07911,-0.06177 -0.113613,-0.220294 -0.481684,-0.367004 -0.595459,-0.237344 -0.02257,0.02572 -0.05056,0.04994 -0.06219,0.05382 -0.0205,0.0068 -0.0471,0.08648 -0.06265,0.187644 -0.02901,0.188695 -0.02258,0.183665 -0.113995,0.08916 z m 2.940763,-0.369156 c 0,-0.03171 -0.0074,-0.05765 -0.01648,-0.05765 -0.0091,0 -0.01648,0.02594 -0.01648,0.05765 0,0.03171 0.0074,0.05765 0.01648,0.05765 0.0091,0 0.01648,-0.02594 0.01648,-0.05765 z m -2.905909,-0.158304 c 0.01241,-0.02009 -0.02458,-0.0503 -0.04565,-0.03728 -0.0072,0.0045 -0.01313,0.01879 -0.01313,0.03185 0,0.02795 0.04244,0.03187 0.05878,0.0054 z m 0.0082,-0.181331 c 0.02072,-0.03871 0.0072,-0.198714 -0.02137,-0.252147 -0.03037,-0.05688 -0.06205,0.01393 -0.06205,0.138705 0,0.13608 0.04127,0.192203 0.08342,0.113442 z m 1.942452,0.74317 c 0,-0.01811 0.0066,-0.03294 0.01455,-0.03294 0.008,0 0.01842,0.01482 0.02316,0.03294 0.0056,0.02141 5.84e-4,0.03294 -0.01455,0.03294 -0.01274,0 -0.02316,-0.01482 -0.02316,-0.03294 z m 0.519774,-0.06218 c -0.0051,-0.0051 -0.0092,-0.01537 -0.0092,-0.02291 0,-0.01836 0.06153,-0.01762 0.07296,7.78e-4 0.01,0.01618 -0.04917,0.03664 -0.06377,0.02204 z m -0.626832,-0.02017 c 0.0056,-0.0091 0.02042,-0.01648 0.03294,-0.01648 0.01253,0 0.02734,0.0074 0.03294,0.01648 0.0058,0.0094 -0.0084,0.01648 -0.03294,0.01648 -0.02455,0 -0.03874,-0.0071 -0.03294,-0.01648 z m -1.44117,-0.07412 c -0.02265,-0.01294 -0.07082,-0.02473 -0.107059,-0.02618 -0.06346,-0.0025 -0.06255,-0.0032 0.02471,-0.01844 0.161644,-0.0282 0.228256,-0.0121 0.181755,0.04392 -0.02578,0.03106 -0.04604,0.0312 -0.0994,7.78e-4 z m 2.635281,0.0082 c 0,-0.0091 0.01113,-0.01648 0.02471,-0.01648 0.01358,0 0.02471,0.0074 0.02471,0.01648 0,0.0091 -0.01113,0.01648 -0.02471,0.01648 -0.0136,0 -0.02471,-0.0074 -0.02471,-0.01648 z m 0.108579,-0.04695 c -0.0048,-0.0077 -0.0096,-0.09479 -0.01087,-0.193527 -0.0024,-0.190534 -0.01261,-0.220694 -0.07502,-0.220694 -0.126825,0 0.02262,-0.06527 0.156342,-0.06828 0.07077,-0.0016 0.09109,-0.0088 0.111237,-0.03957 0.06986,-0.106612 0.137124,-0.06069 0.12538,0.08559 -0.0086,0.106601 -0.0072,0.111627 0.03881,0.148348 l 0.04767,0.03801 -0.05152,0.04706 c -0.02834,0.02588 -0.05644,0.06943 -0.06244,0.09677 -0.01251,0.05699 -0.04789,0.0783 -0.170736,0.10286 -0.104759,0.02094 -0.09816,0.02074 -0.108846,0.0034 z m 0.200938,-0.234572 c 0.0051,-0.114428 -0.01819,-0.1609 -0.07048,-0.140832 -0.02626,0.01008 -0.03765,0.222952 -0.01325,0.247366 0.04426,0.04426 0.079,6.6e-5 0.08372,-0.106534 z m -1.88245,0.197893 c -0.05435,-0.01718 -0.124764,-0.03155 -0.15647,-0.03196 -0.05464,-7.78e-4 -0.05596,-0.002 -0.02521,-0.02527 0.03483,-0.02633 0.07396,-0.135865 0.07437,-0.20816 1.32e-4,-0.02438 0.0087,-0.04957 0.0191,-0.05598 0.01305,-0.0081 0.01624,0.0021 0.01033,0.03296 -0.0047,0.02454 0.0019,0.08014 0.01461,0.123554 l 0.02314,0.07894 0.135355,0.01891 c 0.07444,0.01041 0.157588,0.01966 0.184764,0.02057 l 0.04941,0.0018 -0.05765,0.01617 c -0.0317,0.0089 -0.08199,0.02667 -0.111734,0.0395 -0.02975,0.01282 -0.05569,0.02264 -0.05765,0.02182 -0.002,-7.78e-4 -0.04803,-0.01554 -0.102383,-0.03272 z m 0.742509,-0.136181 c -0.105043,-0.09026 -0.07128,-0.246201 0.05154,-0.238103 0.126535,0.0083 0.12761,0.100461 0.0018,0.15004 -0.01467,0.0058 -0.0043,0.02276 0.03199,0.05247 0.02953,0.02416 0.04947,0.05074 0.04432,0.05908 -0.01716,0.02776 -0.08409,0.01562 -0.129615,-0.02348 z m -0.240158,-0.07294 c 0,-0.05533 0.0073,-0.105132 0.0163,-0.110674 0.0105,-0.0065 0.01262,0.02683 0.0059,0.09373 -0.01356,0.13565 -0.02224,0.14226 -0.02224,0.01694 z m -0.342799,-0.05038 c -0.0653,-0.0583 -0.06609,-0.0795 -0.0035,-0.09325 0.06285,-0.01381 0.08282,-5.84e-4 0.0825,0.05441 -3.89e-4,0.08007 -0.02134,0.09033 -0.07902,0.03884 z m 1.964174,-0.02645 c -0.02976,-0.02206 -0.03009,-0.02561 -0.0047,-0.05136 0.03474,-0.03527 0.0698,-0.0172 0.0475,0.02448 -0.0088,0.01638 -0.01126,0.03446 -0.0055,0.04018 0.01926,0.01926 -0.005,0.0106 -0.03724,-0.01331 z m 0.146754,-0.07148 -0.101274,-0.0051 0.0088,-0.06926 c 0.01521,-0.119765 0.0535,-0.139905 0.120609,-0.06343 0.06356,0.07244 0.298536,0.07738 0.354443,0.0075 l 0.03695,-0.04622 0.246281,0.0032 0.246284,0.0032 0.01836,-0.04029 c 0.0101,-0.02216 0.02407,-0.04082 0.03106,-0.04147 0.04411,-0.0041 0.328742,-0.01757 0.428016,-0.02027 0.09504,-0.0026 0.124729,0.0027 0.148235,0.02618 0.04894,0.04895 7.78e-4,0.06052 -0.258841,0.06215 -0.15743,9.73e-4 -0.258468,0.0091 -0.296469,0.0237 -0.03171,0.01222 -0.05156,0.02276 -0.04412,0.02345 0.0074,7.78e-4 0.0033,0.01146 -0.0091,0.02391 -0.01613,0.01613 -0.08431,0.02458 -0.236304,0.02931 -0.180732,0.0056 -0.222463,0.012 -0.270871,0.04136 -0.06058,0.03674 -0.217747,0.05241 -0.422026,0.04207 z m -2.27048,-0.05305 c -0.0056,-0.0091 0.0014,-0.01648 0.0155,-0.01648 0.01412,0 0.02568,0.0074 0.02568,0.01648 0,0.0091 -0.007,0.01648 -0.0155,0.01648 -0.0085,0 -0.02008,-0.0074 -0.02568,-0.01648 z m 0.709156,-0.06118 c -0.01329,-0.0346 0.01076,-0.05808 0.04573,-0.04466 0.03576,0.01372 0.03468,0.02752 -0.004,0.05169 -0.02579,0.01611 -0.03333,0.01484 -0.04172,-0.007 z m 2.655976,-0.0489 c 0.01189,-0.0048 0.0261,-0.0042 0.03157,0.0014 0.0055,0.0055 -0.0043,0.0094 -0.02162,0.0087 -0.01918,-7.78e-4 -0.02309,-0.0047 -0.0099,-0.0099 z m 0.06588,0 c 0.01189,-0.0048 0.02609,-0.0042 0.03157,0.0014 0.0055,0.0055 -0.0043,0.0094 -0.02162,0.0087 -0.01918,-7.78e-4 -0.02309,-0.0047 -0.01,-0.0099 z m 0.443865,-0.03334 c 0.02049,-0.0039 0.05014,-0.0038 0.06588,3.89e-4 0.01576,0.0041 -9.73e-4,0.0074 -0.03725,0.0072 -0.03623,-1.83e-4 -0.04912,-0.0036 -0.02863,-0.0075 z m 0.20569,-0.04912 c 0.01585,-0.0041 0.04179,-0.0041 0.05765,0 0.01586,0.0041 0.0029,0.0075 -0.02882,0.0075 -0.03171,0 -0.04468,-0.0034 -0.02882,-0.0075 z m -5.093505,-0.285116 c 0,-0.0091 0.02638,-0.01648 0.05862,-0.01648 0.03488,0 0.0545,0.0067 0.04844,0.01648 -0.0056,0.0091 -0.03198,0.01648 -0.05862,0.01648 -0.02664,0 -0.04844,-0.0074 -0.04844,-0.01648 z m 1.227053,-0.905876 c 0.0056,-0.0091 0.02086,-0.01648 0.03391,-0.01648 0.01305,0 0.02373,0.0074 0.02373,0.01648 0,0.0091 -0.01527,0.01648 -0.03391,0.01648 -0.01866,0 -0.02933,-0.0074 -0.02373,-0.01648 z"
         id="path1988"
         sodipodi:nodetypes="ssccssccscsscsssssccsscssssccssscsssssscscsscsssccscccccscssssccscscscscccccscscscssssccsccsccscssscsscsssssccsssccsscsscsscscscsssscssssscscssccssssscsscssscscccscsssssccssssssssscsccssscsscscccssssssscscccsscscsscscssssssssscsssscsssssscsscsssssscscssssssscscssssssssssssscssscscsssssscssscsscccccssssscssssccscssscsssssscssscccsccssccsssscssccssssscssssccscssssssssssssssssssccssssssscsccsssssssssscsccssssccccsscsssssssssscsccccscccssssssssssssssscssssscscsscsssccccccssssssssssssssssssssscscscsccccscccccsscsssssccsscccscsccccssssssccscccsccccccccccscsccsssssccsccscsssscssssssssssssscsssscccsscsscccccssssscssssscccssssscssssscsssssscsssssscccssccccscsccscccsscsccccsssscscsssssscssscssccsccssssssscssssscssscssscsssscsccccscssscscscsscsssscscsscssssssssscsscccsssssccsssscsssscssssssssscssscsccccssccscssscssscsccsscscsccsssssccsccscssssssscscccssssscccsccsssssccsccsscssscccscccccsssccccccsscccssssssssscsssccscscsccccssscccsscscscscsccsssssccsccccsccccscccccccssssssssssssss" />
    </g>
    <use
       x="0"
       y="0"
       xlink:href="#g1994"
       id="use2833"
       transform="translate(451.09203,-0.26458374)"
       width="100%"
       height="100%" />
  </g>
</svg>
